<svg width="176.453125" height="203.674469" viewBox="0 0 176.453 203.674" fill="none" xmlns="http://www.w3.org/2000/svg" xmlns:xlink="http://www.w3.org/1999/xlink">
	<desc>
			Created with Pixso.
	</desc>
	<defs/>
	<path id="path20" d="M167.33 84.18C167.33 84.18 183.94 106.04 141.15 134.64C98.37 163.25 38.71 172.71 26.84 141.91C14.97 111.11 26.06 120.23 71.66 114.96C117.27 109.68 147.64 61.84 154.98 67.06C162.31 72.27 167.33 84.18 167.33 84.18Z" fill="#F9A332" fill-opacity="1.000000" fill-rule="nonzero"/>
	<path id="path24" d="M63.68 156.97C50.8 156.97 39.88 153.91 32.91 147.13C36 145.66 38.44 144.17 40.48 142.92C42.8 141.5 44.68 140.35 45.85 140.35C45.98 140.35 46.1 140.37 46.21 140.39C46.8 140.55 47.42 141.19 48.12 142.38C50.12 145.8 52.86 147.68 55.85 147.68C55.97 147.68 56.09 147.67 56.21 147.67C59.38 147.51 62.3 145.19 64.03 141.46C65.05 139.25 66.39 137.9 68.11 137.35C68.75 137.14 69.47 137.04 70.25 137.04C73.13 137.04 76.98 138.42 81.73 141.16C81.75 141.17 81.76 141.18 81.78 141.19C83.76 142.37 85.97 143.09 88.59 143.16C88.8 143.17 89.01 143.17 89.22 143.17C96.46 143.17 99.88 139.83 101.94 137.81C102.48 137.29 103.29 136.49 103.56 136.47C103.57 136.47 103.81 136.5 104.35 137.06C101.92 139.93 96.93 145.49 89.31 145.49C86.04 145.49 82.29 144.47 78.04 141.76C76.18 140.58 74.27 140.08 72.55 140.08C67.62 140.08 64.19 144.13 67.6 147.67C69 149.12 71.81 149.63 75.04 149.63C80.27 149.63 86.59 148.3 89.81 147.53C96.28 145.94 102.88 143.82 109.43 141.24C110.63 141.78 111.86 142.06 113.01 142.06C114.16 142.06 115.24 141.78 116.16 141.19C116.94 140.69 118.2 139.56 118.52 137.34C126.33 133.72 133.97 129.45 141.15 124.65C157.85 113.48 165.5 103.35 168.62 95.14C168.64 96.43 168.54 97.84 168.28 99.35C167.86 101.81 167.04 104.31 165.85 106.82C161.69 113.85 154.17 121.92 141.15 130.63C116.82 146.89 87.03 156.97 63.68 156.97ZM117.16 130.43C117.08 130.26 117 130.09 116.92 129.91C116.65 129.33 116.4 128.72 116.19 128.09C116.22 128.09 116.26 128.09 116.3 128.09C124.62 128.09 127.78 123.94 131.62 118.91C132.98 117.13 134.38 115.29 136.17 113.36C139.42 109.86 144.38 109.65 149.19 109.44C152.35 109.31 155.37 109.18 157.68 108.03C152.08 113.64 144.71 108.03 140.3 115.07C135.29 123.08 130.83 128.7 121.36 129.82C119.82 130 118.43 130.21 117.16 130.43ZM161.53 101.6C161.56 101.17 161.56 100.72 161.53 100.24C161.37 96.43 161.35 93.83 161.76 92.64C161.98 92 162.27 91.83 163.78 91.16C164.78 90.72 166.06 90.16 167.66 89.16C167.89 89.86 168.1 90.66 168.27 91.55C162.01 93.07 164.45 94.61 161.53 101.6Z" fill="#BF6700" fill-opacity="1.000000" fill-rule="nonzero"/>
	<path id="path28" d="M153.64 68.56C153.21 68.56 152.13 68.81 149.78 70.48C147.05 72.41 143.49 75.62 139.36 79.32C124.26 92.9 101.43 113.42 71.88 116.84C61.08 118.09 52.23 118.53 45.12 118.89C34.15 119.44 26.9 119.81 25 122.77C23.18 125.6 25.12 132.2 28.6 141.22C31.46 148.64 37.4 153.84 46.25 156.68C69.19 164.02 108.66 154.09 140.11 133.06C156.66 122 166.4 110.35 168.28 99.35C169.76 90.74 165.99 85.55 165.83 85.33C165.74 85.21 165.66 85.07 165.6 84.93C165.53 84.77 160.68 73.44 153.89 68.61C153.89 68.61 153.82 68.56 153.64 68.56ZM63.71 162.91C56.82 162.91 50.56 162.04 45.12 160.29C35.12 157.09 28.39 151.14 25.09 142.6C20.88 131.67 19.12 124.95 21.84 120.71C24.79 116.11 31.95 115.75 44.93 115.1C51.99 114.75 60.77 114.31 71.45 113.07C99.82 109.79 122.11 89.75 136.86 76.49C146.73 67.62 152.16 62.74 156.06 65.51C163.3 70.66 168.25 81.58 168.97 83.25C169.81 84.45 173.56 90.52 172.01 99.85C169.98 112.12 159.95 124.36 142.19 136.23C126.75 146.55 108.64 154.68 91.2 159.12C81.29 161.64 72.03 162.91 63.71 162.91Z" fill="#6D184E" fill-opacity="1.000000" fill-rule="nonzero"/>
	<path id="path32" d="M18.99 122.51C18.99 122.51 8.12 120.83 7.15 128.27C6.17 135.72 18.15 132.77 18.01 138.53C17.87 144.29 17.74 151.88 29.99 146.68C42.25 141.48 45.59 134.89 49.49 141.56C53.39 148.23 59.66 147.1 62.58 140.78C65.51 134.46 71.26 133.27 82.52 139.76C88.55 143.24 91.82 138.29 95.91 133.34C99.46 129.03 103.64 124.73 110.78 125.96C126.13 128.59 126.79 121.11 135.01 112.26C143.23 103.4 160.5 113.1 159.94 100.31C159.39 87.53 160.71 92.34 168.34 86.75C175.96 81.17 175.86 68.1 160.92 69.26C145.98 70.42 108.83 124.48 18.99 122.51Z" fill="#48C75A" fill-opacity="1.000000" fill-rule="nonzero"/>
	<path id="path36" d="M160.07 89.61C160.64 87.25 163.33 85.81 168.91 81.43C169.9 80.66 170.88 79.37 171.71 78.08C171.51 80.76 169.92 83.6 167.4 85.45C165.31 86.98 163.76 87.67 162.51 88.21C161.48 88.66 160.68 89.09 160.07 89.61Z" fill="#B6E9BD" fill-opacity="1.000000" fill-rule="nonzero"/>
	<path id="path40" d="M120.91 124.27C125.83 121.58 128.17 115.88 133.63 109.58C140.5 101.64 153.3 106.72 158.26 102.28C158.11 103.16 157.81 103.84 157.35 104.35C155.91 105.94 152.58 106.08 149.05 106.23C143.86 106.45 137.98 106.7 133.85 111.16C131.95 113.21 130.43 115.19 129.09 116.95C126.37 120.51 124.38 123.13 120.91 124.27Z" fill="#B6E9BD" fill-opacity="1.000000" fill-rule="nonzero"/>
	<path id="path44" d="M23.25 146.81C22.39 146.81 21.69 146.64 21.19 146.29C19.45 145.09 19.54 141.48 19.61 138.57C19.7 134.68 16.04 133.53 13.36 132.7C9.82 131.59 8.41 130.89 8.73 128.49C8.9 127.2 9.45 126.22 10.4 125.49C11.67 124.53 13.51 124.13 15.18 124.01C19.93 131.44 27.18 135.58 35.66 135.58C36.73 135.58 37.83 135.51 38.94 135.38C49.44 133.93 60 131.67 70.53 128.62C70.95 129.18 71.35 129.74 71.75 130.3C72.82 131.78 73.85 133.22 74.9 134.57C73.21 134.07 71.66 133.83 70.24 133.83C69.13 133.83 68.1 133.98 67.15 134.28C64.56 135.11 62.54 137.07 61.14 140.1C59.92 142.73 58.02 144.36 56.06 144.46C56 144.46 55.95 144.46 55.89 144.46C54.05 144.46 52.28 143.16 50.86 140.74C49.7 138.75 48.47 137.65 46.99 137.28C46.61 137.18 46.23 137.14 45.86 137.14C43.8 137.14 41.64 138.45 38.83 140.17C36.4 141.66 33.37 143.5 29.37 145.2C26.85 146.27 24.78 146.81 23.25 146.81ZM116.44 124.9C116.1 124.9 115.73 124.89 115.36 124.87C114.62 120.89 114.75 116.19 115.91 111.29C129.61 104.89 142.39 97.39 154.08 88.87C159.75 84.59 163.06 78.8 163.81 72.28C163.91 72.26 164 72.24 164.1 72.22C164.92 77.1 164.09 83.48 157.58 89.49C144.48 101.58 129.72 104.81 123.03 111.69C119.01 115.84 118.57 121.16 118.85 124.74C118.12 124.84 117.32 124.9 116.44 124.9Z" fill="#539256" fill-opacity="1.000000" fill-rule="nonzero"/>
	<path id="path48" d="M16.52 123.96C14.57 123.96 12.02 124.27 10.4 125.49C9.45 126.22 8.9 127.2 8.73 128.49C8.41 130.89 9.82 131.59 13.36 132.7C16.04 133.53 19.7 134.69 19.61 138.57C19.54 141.48 19.45 145.09 21.19 146.29C22.59 147.25 25.42 146.88 29.37 145.2C33.37 143.51 36.39 141.66 38.83 140.17C42.16 138.13 44.57 136.66 46.99 137.28C48.47 137.65 49.7 138.75 50.86 140.74C52.32 143.23 54.16 144.54 56.06 144.46C58.02 144.36 59.92 142.73 61.14 140.1C62.54 137.07 64.56 135.11 67.15 134.28C71.08 133.02 76.36 134.36 83.31 138.37C87.5 140.78 89.76 138.35 93.73 133.48C97.57 128.76 102.35 122.88 111.04 124.37C122 126.25 124.52 122.95 129.09 116.95C130.43 115.19 131.94 113.21 133.85 111.16C137.98 106.7 143.86 106.45 149.05 106.23C152.58 106.08 155.91 105.94 157.35 104.35C158.1 103.52 158.43 102.22 158.35 100.38C157.96 91.37 158.42 90.01 162.51 88.21C163.75 87.67 165.31 86.98 167.4 85.45C170.85 82.92 172.55 78.53 171.35 75.23C170.17 71.99 166.51 70.44 161.04 70.86C157.38 71.15 151.39 75.62 143.81 81.29C133.04 89.34 118.28 100.37 97.95 109.25C73.95 119.74 47.37 124.75 18.95 124.12C18.89 124.12 18.82 124.11 18.75 124.1C18.26 124.03 17.46 123.96 16.52 123.96ZM23.24 150.02C21.71 150.02 20.43 149.66 19.39 148.95C16.22 146.77 16.33 142.18 16.42 138.49C16.45 137.25 15.45 136.72 12.41 135.77C9.41 134.82 4.87 133.4 5.57 128.06C5.85 125.9 6.84 124.17 8.5 122.91C12.23 120.09 18.2 120.78 19.12 120.91C83.59 122.29 120.1 95.01 141.92 78.7C150.53 72.27 156.22 68.01 160.8 67.66C170.62 66.9 173.54 71.93 174.34 74.12C176.05 78.8 173.91 84.66 169.27 88.05C166.9 89.79 165.1 90.58 163.78 91.16C162.27 91.83 161.98 92 161.76 92.64C161.35 93.83 161.37 96.43 161.54 100.24C161.66 102.98 161.06 105.03 159.7 106.52C157.36 109.09 153.39 109.26 149.19 109.44C144.39 109.65 139.42 109.86 136.18 113.36C134.38 115.29 132.98 117.13 131.62 118.91C127 124.96 123.35 129.75 110.51 127.54C103.63 126.36 99.85 131.02 96.19 135.52C92.56 139.98 88.45 145.04 81.73 141.16C75.68 137.67 71.1 136.39 68.11 137.35C66.39 137.9 65.05 139.25 64.03 141.46C62.3 145.19 59.38 147.51 56.21 147.67C53.08 147.83 50.2 145.94 48.12 142.38C47.43 141.19 46.8 140.55 46.21 140.39C45.08 140.11 43.05 141.35 40.48 142.92C37.96 144.46 34.82 146.38 30.61 148.16C27.69 149.4 25.24 150.02 23.24 150.02Z" fill="#6D184E" fill-opacity="1.000000" fill-rule="nonzero"/>
	<path id="path52" d="M135.32 42.7C133.38 43.48 131.71 44.72 130.35 46.3C122.03 52.07 103.91 63.71 80.92 72.87C58.01 82.24 36.94 86.43 26.97 88.04C24.9 87.85 22.85 88.12 20.91 88.9C12.08 92.47 8.9 105.41 13.82 117.8C18.74 130.2 28.5 135.02 38.72 133.78C61.46 130.65 81.78 124.04 98.41 116.94C115.29 110.51 134.52 101.14 153.12 87.59C161.37 81.37 165.14 71.08 160.22 58.68C155.3 46.29 144.15 39.13 135.32 42.7Z" fill="#DB2839" fill-opacity="1.000000" fill-rule="nonzero"/>
	<path id="path56" d="M35.59 132.37C26.47 132.37 19.17 126.97 15.3 117.2C15 116.46 14.74 115.71 14.5 114.96C15.11 114.75 15.73 114.54 16.36 114.34C15.91 116.41 15.84 118.54 16.99 120.3C18.13 122.05 20.19 123.05 23.3 123.34C23.75 123.39 24.2 123.41 24.63 123.41C31.07 123.41 35.22 118.85 38.3 115.47C40.18 113.39 41.97 111.44 43.43 111.44C43.44 111.44 43.45 111.44 43.46 111.44C44.31 111.45 45.33 112.15 46.47 113.51C50.51 118.32 55.8 120.93 61.43 120.93C61.69 120.93 61.94 120.93 62.2 120.92C62.88 120.89 63.55 120.82 64.22 120.72C65.78 122.42 67.18 124.15 68.49 125.86C58.49 128.7 48.48 130.81 38.53 132.19C37.53 132.31 36.55 132.37 35.59 132.37ZM42.92 115.41C42.67 115.41 42.45 115.54 42.25 115.84C41.44 117.02 39.73 118.66 37.91 120.24C36.72 121.28 37.08 123.21 38.55 123.79C41.17 124.83 43.96 125.33 46.83 125.33C47.84 125.33 48.87 125.27 49.9 125.14C49.93 125.14 49.96 125.13 49.99 125.13C51.98 124.85 52.45 122.17 50.68 121.21C46.17 118.76 44.17 115.41 42.92 115.41ZM117.11 107.16C119.03 101.7 122.23 96.16 126.96 91.22C127.69 91.28 128.43 91.32 129.17 91.32C129.82 91.32 130.46 91.29 131.1 91.22C129.44 93.14 128 95.01 126.77 96.7C125.72 98.16 126.87 100.02 128.41 100.02C128.7 100.02 129.01 99.95 129.32 99.8C133.73 97.67 138.22 95.34 142.73 92.79C134.64 98.05 126.09 102.85 117.11 107.16ZM141.46 81.55C141.55 81.22 141.63 80.89 141.7 80.57C149.24 76.58 155.53 74.35 160.52 73.05C160.45 73.45 160.37 73.84 160.28 74.23C153.17 74.67 146.83 77.64 141.46 81.55Z" fill="#A92142" fill-opacity="1.000000" fill-rule="nonzero"/>
	<path id="path60" d="M25.69 89.59C24.23 89.59 22.83 89.86 21.5 90.39C17.72 91.92 14.97 95.48 13.75 100.43C12.49 105.56 13.04 111.52 15.3 117.2C19.58 128 28.05 133.45 38.53 132.19C58.22 129.47 78.16 123.84 97.78 115.46C97.8 115.45 97.82 115.44 97.84 115.44C117.77 107.85 136.06 98.04 152.19 86.28C160.63 79.92 163.02 70.07 158.74 59.28C154.16 47.73 143.91 40.96 135.91 44.2L135.32 42.7L135.91 44.2C134.25 44.86 132.78 45.93 131.55 47.35C131.46 47.45 131.36 47.54 131.25 47.62C122.52 53.68 104.46 65.22 81.5 74.37C58.65 83.71 37.68 87.94 27.22 89.63C27.08 89.65 26.95 89.65 26.82 89.64C26.44 89.61 26.07 89.59 25.69 89.59ZM35.66 135.58C25.25 135.58 16.68 129.34 12.33 118.4C9.83 112.09 9.24 105.44 10.66 99.65C12.12 93.68 15.56 89.33 20.32 87.41C22.39 86.57 24.6 86.24 26.91 86.42C37.3 84.74 57.88 80.56 80.32 71.38C102.85 62.4 120.61 51.09 129.28 45.08C130.82 43.35 132.65 42.04 134.72 41.21C144.36 37.32 156.46 44.89 161.7 58.08C166.49 70.15 163.64 81.66 154.08 88.87C137.71 100.8 119.18 110.75 99 118.43C79.13 126.92 58.92 132.62 38.94 135.38C37.83 135.51 36.73 135.58 35.66 135.58Z" fill="#6D184E" fill-opacity="1.000000" fill-rule="nonzero"/>
	<path id="path64" d="M16.76 102.42C16.76 102.42 6.03 106.78 3.39 114.22C1.82 118.65 6.34 116.18 13.22 113.71C17.92 112.03 23.72 110.34 29.43 110.85C34.65 111.32 36.65 109.74 38.1 108.17C40.56 105.49 41.45 102.81 53.81 110.15C73.45 121.81 75.26 141.2 88.63 141.55C93.98 141.69 97.06 139.95 99.15 138.21C102.27 135.6 103.17 133 106.18 136.71C111.19 142.89 120.7 141.76 115.48 130.59C110.25 119.42 113.56 94.83 137.24 81.2C160.92 67.57 173.59 70.52 174.71 68.56C175.82 66.59 170.53 56.47 153.67 56.19C136.82 55.91 94.48 99.33 16.76 102.42Z" fill="#FCAF15" fill-opacity="1.000000" fill-rule="nonzero"/>
	<path id="path68" d="M89.19 139.95C89.02 139.95 88.85 139.95 88.67 139.95C82.51 139.78 79.08 135.01 74.33 128.41C72.4 125.73 70.27 122.77 67.68 119.8C71.02 118.54 73.96 116.27 76.14 113.19C78.2 110.28 79.98 109.17 82.19 109.17C84.32 109.17 86.85 110.22 90.41 111.69C92.66 112.61 95.2 113.67 98.17 114.63C100.1 115.26 102 115.57 103.8 115.57C107.02 115.57 109.97 114.59 112.37 112.69C112.04 113.31 111.75 113.93 111.49 114.55C108.61 116.11 105.77 116.69 103.05 116.69C99.11 116.69 95.41 115.49 92.12 114.29C88.83 113.08 85.96 111.88 83.69 111.88C82.42 111.88 81.34 112.25 80.48 113.2C77.41 116.61 74.38 120.01 72.53 121.05C78.03 128.61 81.39 134.96 88.96 135.16C89.15 135.16 89.33 135.17 89.51 135.17C94.62 135.17 97.52 133.23 99.48 131.28C101.43 129.34 102.44 127.4 103.77 127.4C104.44 127.4 105.19 127.89 106.18 129.12C107.97 131.32 110.33 132.59 112.39 132.81C113.3 135.57 113.14 137.54 112.36 138.78C110.8 138.55 108.9 137.52 107.41 135.69C106.54 134.6 105.33 133.35 103.75 133.26C103.69 133.26 103.63 133.25 103.57 133.25C102.03 133.25 100.91 134.34 99.72 135.5C97.79 137.39 95.16 139.95 89.19 139.95ZM4.82 114.98C4.84 114.92 4.86 114.84 4.89 114.77C5.85 112.05 8.08 109.75 10.4 107.98C11.84 107.95 13.35 107.84 14.83 107.72C15.75 107.65 16.62 107.58 17.47 107.54C17.56 107.53 17.63 107.53 17.7 107.53C17.92 107.53 18.06 107.55 18.14 107.57C18.21 108.12 17.78 109.55 17.43 110.66C14.51 111.48 11.81 112.51 9.48 113.39C7.85 114.01 5.91 114.75 4.82 114.98Z" fill="#D18126" fill-opacity="1.000000" fill-rule="nonzero"/>
	<path id="path72" d="M29.63 110.87C38.16 111.56 37.91 106.67 41.11 105.6C35.05 104.23 36.66 110.16 29.63 110.87Z" fill="#F8CE36" fill-opacity="1.000000" fill-rule="nonzero"/>
	<path id="path76" d="M3.23 116.27C4.58 118.38 14.89 111.42 25.79 110.8C16.87 110.25 7.84 114.86 3.23 116.27Z" fill="#F8CE36" fill-opacity="1.000000" fill-rule="nonzero"/>
	<path id="path80" d="M113.01 132.85C112.81 132.85 112.6 132.84 112.38 132.81C112.16 132.12 111.86 131.38 111.49 130.59C109.66 126.69 109.01 120.59 111.49 114.56C111.71 114.44 111.93 114.32 112.14 114.19C111.26 120.55 111.89 126.68 114.03 131.28C114.25 131.73 114.43 132.17 114.59 132.59C114.11 132.76 113.58 132.85 113.01 132.85Z" fill="#FED78A" fill-opacity="1.000000" fill-rule="nonzero"/>
	<path id="path84" d="M113.02 138.84C112.81 138.84 112.59 138.82 112.36 138.79C113.14 137.54 113.3 135.57 112.38 132.81C112.6 132.84 112.81 132.85 113.01 132.85C113.58 132.85 114.11 132.76 114.59 132.59C115.71 135.5 115.68 137.7 114.46 138.48C114.08 138.72 113.59 138.84 113.02 138.84ZM111.49 114.55C111.75 113.93 112.04 113.31 112.37 112.69C112.37 112.69 112.37 112.68 112.38 112.68C112.29 113.19 112.21 113.69 112.14 114.19C111.93 114.32 111.71 114.44 111.49 114.55Z" fill="#E8C093" fill-opacity="1.000000" fill-rule="nonzero"/>
	<path id="path88" d="M117.86 97.88C117.7 96.36 117.38 94.8 116.89 93.23C116.18 90.92 116.6 90.41 116.61 90.39C116.8 90.17 117.29 90.09 117.95 90.09C119.2 90.09 121.04 90.39 122.42 90.61C122.61 90.64 122.81 90.67 123.02 90.71C120.93 93.11 119.23 95.53 117.86 97.88Z" fill="#D18126" fill-opacity="1.000000" fill-rule="nonzero"/>
	<path id="path92" d="M42.41 103.8C44.89 103.8 48.52 105.14 54.62 108.76C64.35 114.54 69.88 122.23 74.33 128.41C79.08 135.01 82.51 139.78 88.67 139.95C95.01 140.1 97.73 137.45 99.72 135.5C100.95 134.3 102.12 133.17 103.75 133.26C105.33 133.35 106.54 134.61 107.42 135.69C109.71 138.51 112.97 139.42 114.46 138.48C115.86 137.58 115.69 134.83 114.03 131.28C111 124.79 110.99 115.22 114.01 106.3C116.62 98.61 122.63 87.76 136.45 79.81C153.5 69.99 165.06 68.62 170.61 67.96C171.57 67.85 172.63 67.72 173.21 67.59C173.1 67.04 172.68 65.94 171.47 64.53C169.79 62.57 164.7 57.98 153.65 57.8C148.52 57.7 140.42 62.25 129.18 68.52C105.4 81.8 69.49 101.86 17.12 104.02C15.57 104.7 7.05 108.68 4.89 114.77C4.86 114.84 4.84 114.92 4.82 114.98C5.91 114.75 7.85 114.01 9.48 113.39C14.82 111.36 22.14 108.58 29.58 109.25C34.63 109.71 35.99 108.16 37.42 106.52C38.8 104.95 40.11 103.8 42.41 103.8ZM89.22 143.17C89.01 143.17 88.8 143.17 88.59 143.16C80.86 142.96 76.64 137.09 71.75 130.3C67.25 124.05 62.16 116.97 53 111.53C48.02 108.58 44.63 107.1 42.64 107.01C41.36 106.96 40.87 107.44 39.81 108.65C38.18 110.51 35.95 113.05 29.29 112.45C22.58 111.85 15.66 114.48 10.61 116.4C6.16 118.09 3.7 119.02 2.21 117.54C0.96 116.3 1.66 114.33 1.89 113.68C4.74 105.65 15.7 101.12 16.16 100.93C16.33 100.86 16.51 100.82 16.7 100.81C68.47 98.75 104.08 78.87 127.64 65.71C139.3 59.19 147.73 54.49 153.7 54.59C165.66 54.78 172.75 59.87 175.4 64.57C176.03 65.7 176.97 67.81 176.09 69.35C175.37 70.63 173.9 70.81 170.98 71.15C165.64 71.79 154.52 73.11 138.03 82.6C116.1 95.22 111.63 118.59 116.92 129.91C120.43 137.42 117.56 140.3 116.16 141.19C113.06 143.17 108.13 141.65 104.95 137.72C103.98 136.53 103.57 136.47 103.56 136.47C103.29 136.49 102.48 137.29 101.94 137.81C99.88 139.83 96.46 143.17 89.22 143.17Z" fill="#6D184E" fill-opacity="1.000000" fill-rule="nonzero"/>
	<path id="path96" d="M101.01 123.16C101.01 123.16 96.15 132.28 88.96 131.17C83.51 130.33 92.62 131.4 94.99 124.74C97.72 117.05 102.42 121.06 101.01 123.16Z" fill="#F8CE36" fill-opacity="1.000000" fill-rule="nonzero"/>
	<path id="path100" d="M23.45 85.91C23.45 85.91 4.23 86.96 1.93 97.71C-0.37 108.46 9.66 106.36 17.39 105.93C25.12 105.51 10.08 120.48 23.45 121.74C29.04 122.27 32.76 119.04 35.8 115.81C40.04 111.32 42.94 106.83 47.68 112.47C55.83 122.16 68.57 121.11 74.84 112.26C81.11 103.4 86.33 109.1 98.66 113.1C110.99 117.1 119.34 106.57 115.37 93.71C113.4 87.33 117.66 88.22 123.19 89.11C128.8 90.01 135.72 90.91 138.77 84.22C144.83 70.95 131.88 68.63 147.34 65.47C162.8 62.3 169.49 61.25 166.98 52.72C164.47 44.18 158.62 37.86 138.98 46.29C119.34 54.72 101.58 91.6 23.45 85.91Z" fill="#48C75A" fill-opacity="1.000000" fill-rule="nonzero"/>
	<path id="path104" d="M20.36 111.97C21.19 109.39 21.89 107.16 20.67 105.57C20.04 104.74 19.04 104.32 17.68 104.32C17.56 104.32 17.43 104.32 17.3 104.33C16.41 104.38 15.49 104.45 14.59 104.52C12.98 104.64 11.28 104.77 9.7 104.77C9.52 104.77 9.34 104.77 9.16 104.76C10.24 100.89 12.24 97.1 8.66 97.1C8.57 97.1 8.46 97.1 8.36 97.11C6.83 97.19 5.23 97.34 3.64 97.44C4.46 94.68 6.69 92.67 9.38 91.22C9.68 92.8 10.04 94.36 10.44 95.91C16.83 99.17 23.71 101.39 30.96 102.63C28.06 105.14 25.04 109.89 20.36 111.97ZM52.43 110.5C50.63 110.5 48.8 110.2 47.02 109.58C46.06 108.84 45.11 108.41 44.13 108.27C42.18 107.16 40.32 105.63 38.65 103.65C38.63 103.62 38.6 103.59 38.58 103.56C40.86 103.74 43.16 103.83 45.49 103.83C52.6 103.83 59.94 103.02 67.41 101.46C66.88 102.02 66.35 102.67 65.81 103.44C62.57 108.01 57.6 110.5 52.43 110.5ZM94.77 105.14C93.16 105.14 91.44 104.87 89.63 104.28C83.96 102.44 79.79 100.23 76.33 99.26C81.93 97.67 87.58 95.67 93.23 93.29C93.25 93.28 93.27 93.27 93.3 93.26C93.3 93.25 93.31 93.25 93.32 93.25C93.33 93.24 93.35 93.24 93.37 93.23C93.37 93.22 93.38 93.22 93.39 93.22C93.41 93.21 93.42 93.2 93.44 93.2C93.45 93.19 93.45 93.19 93.46 93.19C93.48 93.18 93.5 93.17 93.53 93.16L93.53 93.16C93.55 93.15 93.58 93.14 93.6 93.13C93.6 93.13 93.61 93.13 93.61 93.13C93.63 93.12 93.65 93.11 93.67 93.1C93.68 93.1 93.68 93.09 93.69 93.09C93.71 93.08 93.73 93.07 93.75 93.07C93.75 93.06 93.76 93.06 93.76 93.06C93.78 93.05 93.81 93.04 93.83 93.03L93.83 93.03C93.88 93.01 93.93 92.99 93.98 92.97C93.98 92.97 93.98 92.97 93.99 92.97C94.01 92.96 94.03 92.95 94.05 92.94C94.06 92.93 94.06 92.93 94.06 92.93C94.16 92.89 94.26 92.85 94.35 92.81L94.36 92.8C94.58 92.71 94.81 92.61 95.03 92.51L95.03 92.51C95.13 92.47 95.23 92.43 95.33 92.38L95.33 92.38C95.43 92.34 95.53 92.3 95.63 92.25C95.63 92.25 95.63 92.25 95.63 92.25C95.73 92.21 95.83 92.16 95.92 92.12C95.93 92.12 95.93 92.12 95.93 92.12C95.95 92.11 95.98 92.1 96 92.09C96 92.09 96 92.09 96 92.09C96.08 92.05 96.15 92.02 96.22 91.99C96.22 91.99 96.23 91.99 96.23 91.98C96.25 91.97 96.27 91.97 96.29 91.96C96.29 91.95 96.3 91.95 96.3 91.95C96.33 91.94 96.35 91.93 96.37 91.92L96.37 91.92C96.42 91.9 96.47 91.88 96.52 91.86C96.52 91.85 96.52 91.85 96.53 91.85C96.55 91.84 96.57 91.83 96.59 91.82C96.59 91.82 96.6 91.82 96.6 91.82C96.62 91.81 96.64 91.8 96.66 91.79C96.66 91.79 96.67 91.79 96.67 91.79C96.72 91.77 96.76 91.74 96.81 91.72C96.82 91.72 96.83 91.72 96.83 91.71C96.85 91.71 96.86 91.7 96.88 91.69C96.89 91.69 96.9 91.69 96.9 91.68C96.92 91.67 96.93 91.67 96.95 91.66C96.96 91.66 96.97 91.65 96.97 91.65C96.99 91.64 97.01 91.63 97.03 91.63C97.03 91.62 97.04 91.62 97.04 91.62C97.06 91.61 97.09 91.6 97.11 91.59C97.12 91.59 97.12 91.58 97.13 91.58C97.14 91.57 97.16 91.57 97.18 91.56C97.18 91.55 97.19 91.55 97.2 91.55C97.22 91.54 97.23 91.53 97.24 91.53C97.25 91.52 97.26 91.52 97.27 91.51C97.29 91.51 97.3 91.5 97.31 91.5C97.32 91.49 97.33 91.49 97.34 91.48C97.35 91.48 97.36 91.47 97.38 91.47C97.4 91.46 97.42 91.45 97.44 91.44C97.45 91.43 97.46 91.43 97.47 91.42C97.48 91.42 97.5 91.41 97.51 91.41C97.52 91.4 97.53 91.4 97.53 91.39C97.55 91.39 97.56 91.38 97.58 91.38C97.58 91.37 97.59 91.37 97.6 91.37C97.61 91.36 97.63 91.35 97.64 91.34C97.65 91.34 97.65 91.34 97.65 91.34C97.7 91.32 97.76 91.29 97.82 91.26C97.82 91.26 97.82 91.26 97.83 91.26C97.84 91.25 97.86 91.24 97.88 91.24L97.88 91.23C100.95 89.82 103.94 88.32 106.84 86.75C109.08 96.89 103.61 105.14 94.77 105.14ZM120.22 80.91C119.12 80.91 118.01 80.82 116.91 80.68C122.17 77.18 127.04 73.38 131.44 69.31C131.29 71.04 130.82 73.05 129.74 75.4C127.74 79.78 124.09 80.91 120.22 80.91ZM143.71 55.54C146.1 52.22 148.22 48.77 150.03 45.21C149.92 44.96 149.8 44.7 149.68 44.45C151.39 44.1 152.97 43.93 154.4 43.93C155.76 43.93 156.99 44.08 158.09 44.39C159.92 51.44 155.04 53.16 143.71 55.54Z" fill="#539256" fill-opacity="1.000000" fill-rule="nonzero"/>
	<path id="path108" d="M61.43 117.72C61.38 117.72 61.33 117.72 61.28 117.72C64.11 116.47 66.64 114.43 68.58 111.69C71.16 108.05 73.58 106.73 76.33 106.73C76.93 106.73 77.55 106.79 78.19 106.91C76.63 107.73 75.1 109.13 73.54 111.32C70.81 115.19 66.62 117.51 62.06 117.7C61.85 117.71 61.64 117.72 61.43 117.72Z" fill="#A4E3AD" fill-opacity="1.000000" fill-rule="nonzero"/>
	<path id="path112" d="M104.78 112.33C110.99 109.44 113.38 101.53 111.53 92.03C110.8 88.27 112.42 87.33 115.18 87.33C115.28 87.33 115.38 87.33 115.48 87.34C114.99 87.55 114.57 87.86 114.2 88.28C112.77 89.95 113.31 92.45 113.85 94.19C115.69 100.14 114.7 105.95 111.28 109.37C109.52 111.13 107.3 112.13 104.78 112.33ZM129.29 88.1C128.94 88.1 128.59 88.09 128.23 88.07C131.51 87.58 134.5 85.99 136.33 81.98C142.75 67.91 129.02 65.46 145.4 62.11C156.65 59.81 163.52 58.56 165.85 55.07C166.02 56.52 165.7 57.29 165.41 57.78C163.81 60.47 157.73 61.71 148.52 63.58L147.02 63.89C141.77 64.96 139.43 65.99 138.38 67.68C137.41 69.23 137.82 70.87 138.26 72.6C138.9 75.15 139.7 78.33 137.32 83.55C135.72 87.06 132.91 88.1 129.29 88.1Z" fill="#A4E3AD" fill-opacity="1.000000" fill-rule="nonzero"/>
	<path id="path116" d="M17.68 104.32C19.04 104.32 20.04 104.74 20.67 105.57C21.9 107.18 21.18 109.42 20.34 112.02C19.58 114.4 18.71 117.09 19.65 118.53C20.22 119.41 21.54 119.95 23.59 120.14C29.23 120.67 32.8 116.75 35.95 113.29C38.35 110.65 40.61 108.15 43.52 108.22C45.36 108.26 47.11 109.31 48.9 111.43C52.47 115.68 57.15 117.91 62.06 117.7C66.62 117.51 70.81 115.19 73.54 111.32C79.07 103.52 84.33 105.7 91.62 108.71C93.81 109.62 96.3 110.64 99.15 111.57C103.98 113.14 108.29 112.36 111.28 109.37C114.7 105.96 115.69 100.14 113.85 94.19C113.32 92.45 112.77 89.95 114.21 88.28C115.91 86.3 119.16 86.82 122.92 87.43C129.59 88.51 134.88 88.91 137.32 83.55C139.71 78.33 138.9 75.15 138.26 72.6C137.82 70.87 137.41 69.23 138.38 67.68C139.43 65.99 141.77 64.96 147.02 63.89L148.53 63.58C157.73 61.71 163.81 60.47 165.41 57.78C165.81 57.11 166.25 55.9 165.45 53.17C164.18 48.87 162.31 46.26 159.56 44.95C155.34 42.94 148.63 43.89 139.6 47.77C134.95 49.76 130.25 53.55 124.82 57.94C116.33 64.78 105.77 73.3 89.91 79.53C71.38 86.8 49.64 89.42 23.44 87.52C22.03 87.62 5.42 88.99 3.48 98.05C2.96 100.51 3.13 102.25 3.98 103.24C5.67 105.2 10.41 104.84 14.59 104.52C15.49 104.45 16.41 104.38 17.3 104.33C17.43 104.32 17.56 104.32 17.68 104.32ZM24.63 123.41C24.2 123.41 23.75 123.39 23.3 123.34C20.19 123.05 18.13 122.05 16.99 120.3C15.2 117.57 16.37 113.94 17.31 111.03C17.68 109.88 18.22 108.18 18.14 107.57C18.03 107.55 17.83 107.52 17.47 107.54C16.62 107.59 15.75 107.65 14.83 107.72C9.66 108.12 4.32 108.53 1.58 105.35C0 103.53 -0.39 100.92 0.37 97.37C2.89 85.56 22.52 84.35 23.36 84.3C23.43 84.3 23.49 84.3 23.56 84.31C81.76 88.54 105.5 69.4 122.83 55.43C128.45 50.89 133.3 46.98 138.36 44.81C148.39 40.5 155.77 39.59 160.92 42.04C164.55 43.77 166.97 47.01 168.51 52.26C169.38 55.22 169.26 57.57 168.14 59.44C165.82 63.34 159.55 64.62 149.16 66.74L147.66 67.04C143.76 67.84 141.55 68.63 141.08 69.39C140.85 69.76 141.03 70.55 141.35 71.8C142.03 74.53 143.07 78.64 140.22 84.9C136.57 92.9 128.05 91.52 122.42 90.61C120.32 90.27 117.16 89.75 116.61 90.39C116.6 90.41 116.18 90.92 116.89 93.23C119.12 100.44 117.86 107.33 113.53 111.66C109.71 115.48 104.11 116.56 98.17 114.63C95.2 113.67 92.66 112.61 90.41 111.69C83.18 108.7 80.19 107.46 76.14 113.19C72.83 117.87 67.74 120.69 62.2 120.92C56.27 121.16 50.69 118.53 46.47 113.51C45.33 112.15 44.31 111.45 43.46 111.44C43.45 111.44 43.44 111.44 43.43 111.44C41.97 111.44 40.18 113.39 38.3 115.47C35.22 118.85 31.07 123.41 24.63 123.41Z" fill="#6D184E" fill-opacity="1.000000" fill-rule="nonzero"/>
	<path id="path120" d="M93.23 93.29C119.01 82.42 139.55 65.78 150.03 45.21C138.39 19.82 113.1 2.09 83.66 1.61C42.75 0.95 8.71 34.1 8 75.37C7.87 82.48 8.74 89.37 10.44 95.91C33.63 107.75 63.43 105.85 93.23 93.29Z" fill="#F9A332" fill-opacity="1.000000" fill-rule="nonzero"/>
	<path id="path124" d="M93.79 2.47L93.79 2.47L93.79 2.47ZM93.72 2.46C93.72 2.46 93.72 2.46 93.71 2.46C93.72 2.46 93.72 2.46 93.72 2.46ZM93.68 2.46C93.67 2.46 93.68 2.46 93.67 2.45L93.68 2.46ZM93.64 2.45C93.64 2.45 93.64 2.45 93.63 2.45C93.64 2.45 93.64 2.45 93.64 2.45ZM93.6 2.44L93.6 2.44L93.6 2.44ZM93.48 2.43C93.48 2.42 93.48 2.42 93.48 2.42C93.48 2.42 93.48 2.42 93.48 2.43ZM93.29 2.4C93.29 2.4 93.29 2.4 93.28 2.4C93.29 2.4 93.29 2.4 93.29 2.4ZM93.25 2.39C93.25 2.39 93.25 2.39 93.25 2.39C93.25 2.39 93.25 2.39 93.25 2.39ZM93.22 2.39C93.21 2.39 93.21 2.38 93.2 2.38C93.21 2.39 93.21 2.39 93.22 2.39ZM93.18 2.38C93.17 2.38 93.17 2.38 93.16 2.38C93.17 2.38 93.17 2.38 93.18 2.38ZM93.14 2.37C93.14 2.37 93.13 2.37 93.12 2.37C93.13 2.37 93.13 2.37 93.14 2.37ZM93.1 2.37C93.09 2.37 93.09 2.37 93.08 2.37C93.09 2.37 93.09 2.37 93.1 2.37ZM93.06 2.36C93.05 2.36 93.05 2.36 93.04 2.36C93.05 2.36 93.05 2.36 93.06 2.36ZM93.02 2.36C93.01 2.36 93.01 2.36 93 2.35C93.01 2.36 93.01 2.36 93.02 2.36ZM92.98 2.35C92.97 2.35 92.97 2.35 92.96 2.35C92.97 2.35 92.97 2.35 92.98 2.35ZM92.94 2.34C92.93 2.34 92.93 2.34 92.92 2.34C92.93 2.34 92.93 2.34 92.94 2.34ZM92.9 2.34C92.89 2.34 92.89 2.34 92.88 2.34C92.89 2.34 92.89 2.34 92.9 2.34ZM92.86 2.33C92.85 2.33 92.84 2.33 92.83 2.33C92.84 2.33 92.85 2.33 92.86 2.33ZM92.82 2.33C92.81 2.33 92.8 2.33 92.79 2.32C92.8 2.33 92.81 2.33 92.82 2.33ZM92.78 2.32C92.76 2.32 92.75 2.32 92.74 2.32C92.75 2.32 92.77 2.32 92.78 2.32ZM92.73 2.32C92.72 2.31 92.71 2.31 92.7 2.31C92.71 2.31 92.72 2.32 92.73 2.32ZM92.69 2.31C92.68 2.31 92.67 2.31 92.66 2.31C92.67 2.31 92.67 2.31 92.69 2.31ZM92.64 2.3C92.64 2.3 92.62 2.3 92.62 2.3C92.63 2.3 92.63 2.3 92.64 2.3ZM92.6 2.3C92.59 2.3 92.58 2.3 92.58 2.3C92.58 2.3 92.59 2.3 92.6 2.3ZM92.56 2.29C92.55 2.29 92.54 2.29 92.53 2.29C92.54 2.29 92.55 2.29 92.56 2.29ZM92.52 2.29C92.51 2.29 92.5 2.28 92.49 2.28C92.5 2.28 92.51 2.29 92.52 2.29ZM92.48 2.28C92.47 2.28 92.46 2.28 92.45 2.28C92.46 2.28 92.47 2.28 92.48 2.28ZM92.44 2.28C92.43 2.28 92.42 2.27 92.41 2.27C92.42 2.27 92.43 2.28 92.44 2.28ZM92.4 2.27C92.39 2.27 92.38 2.27 92.37 2.27C92.38 2.27 92.39 2.27 92.4 2.27ZM92.36 2.26C92.35 2.26 92.33 2.26 92.33 2.26C92.33 2.26 92.35 2.26 92.36 2.26ZM92.32 2.26C92.31 2.26 92.3 2.26 92.28 2.26C92.3 2.26 92.31 2.26 92.32 2.26ZM92.28 2.25C92.26 2.25 92.25 2.25 92.24 2.25C92.25 2.25 92.26 2.25 92.28 2.25ZM92.24 2.25C92.22 2.25 92.21 2.25 92.2 2.24C92.21 2.25 92.22 2.25 92.24 2.25ZM92.2 2.24C92.11 2.23 92.03 2.22 91.94 2.21C92.03 2.22 92.11 2.23 92.2 2.24ZM91.94 2.21C91.93 2.21 91.92 2.21 91.9 2.21C91.91 2.21 91.93 2.21 91.94 2.21ZM91.9 2.21C91.89 2.2 91.87 2.2 91.86 2.2C91.87 2.2 91.89 2.2 91.9 2.21ZM91.86 2.2C91.83 2.2 91.81 2.19 91.78 2.19C91.81 2.19 91.83 2.2 91.86 2.2ZM91.77 2.19C91.76 2.19 91.75 2.19 91.73 2.18C91.75 2.19 91.76 2.19 91.77 2.19ZM91.73 2.18C91.72 2.18 91.71 2.18 91.69 2.18C91.71 2.18 91.72 2.18 91.73 2.18ZM91.69 2.18C89.41 1.89 87.11 1.71 84.77 1.64C87.11 1.71 89.42 1.89 91.69 2.18ZM84.77 1.64C84.76 1.64 84.75 1.64 84.73 1.64C84.75 1.64 84.76 1.64 84.77 1.64ZM84.73 1.64C84.72 1.64 84.7 1.64 84.69 1.64C84.7 1.64 84.72 1.64 84.73 1.64ZM84.69 1.64C84.67 1.64 84.66 1.64 84.65 1.64C84.66 1.64 84.67 1.64 84.69 1.64ZM84.64 1.64C84.63 1.64 84.62 1.63 84.6 1.63C84.62 1.63 84.63 1.64 84.64 1.64ZM84.6 1.63C84.59 1.63 84.57 1.63 84.56 1.63C84.57 1.63 84.59 1.63 84.6 1.63ZM84.56 1.63C84.54 1.63 84.53 1.63 84.52 1.63C84.53 1.63 84.54 1.63 84.56 1.63ZM84.51 1.63C84.5 1.63 84.49 1.63 84.48 1.63C84.49 1.63 84.5 1.63 84.51 1.63ZM84.47 1.63C84.39 1.63 84.3 1.63 84.22 1.63C84.3 1.63 84.39 1.63 84.47 1.63ZM84.21 1.62C84.2 1.62 84.18 1.62 84.17 1.62C84.19 1.62 84.2 1.62 84.21 1.62ZM84.17 1.62C84.16 1.62 84.15 1.62 84.13 1.62C84.14 1.62 84.16 1.62 84.17 1.62ZM84.12 1.62C84.11 1.62 84.1 1.62 84.09 1.62C84.1 1.62 84.11 1.62 84.12 1.62ZM84.08 1.62C84.07 1.62 84.06 1.62 84.05 1.62C84.06 1.62 84.07 1.62 84.08 1.62ZM84.04 1.62C84.02 1.62 84.01 1.62 84 1.62C84.01 1.62 84.02 1.62 84.04 1.62ZM83.99 1.62C83.98 1.62 83.97 1.62 83.96 1.62C83.98 1.62 83.98 1.62 83.99 1.62ZM83.95 1.62C83.94 1.62 83.93 1.62 83.92 1.62C83.93 1.62 83.94 1.62 83.95 1.62ZM83.91 1.62C83.9 1.62 83.89 1.62 83.88 1.62C83.89 1.62 83.9 1.62 83.91 1.62ZM83.86 1.62C83.86 1.62 83.85 1.62 83.84 1.62C83.85 1.62 83.85 1.62 83.86 1.62ZM83.82 1.62C83.81 1.62 83.81 1.62 83.8 1.62C83.81 1.62 83.81 1.62 83.82 1.62ZM83.78 1.62C83.77 1.62 83.76 1.62 83.75 1.61C83.76 1.62 83.77 1.62 83.78 1.62ZM83.74 1.61C83.73 1.61 83.72 1.61 83.71 1.61C83.72 1.61 83.73 1.61 83.74 1.61ZM83.7 1.61C83.68 1.61 83.67 1.61 83.65 1.61C83.67 1.61 83.68 1.61 83.7 1.61ZM83.65 1.61C83.62 1.61 83.58 1.61 83.54 1.61C83.58 1.61 83.62 1.61 83.65 1.61ZM81.87 1.61C81.97 1.61 82.07 1.6 82.17 1.6C82.18 1.6 82.19 1.6 82.2 1.6C82.09 1.61 81.98 1.61 81.87 1.61Z" fill="#FFF6AF" fill-opacity="1.000000" fill-rule="nonzero"/>
	<path id="path128" d="M15.47 43.96C27.49 19.14 52.69 1.94 81.59 1.61C81.69 1.61 81.78 1.61 81.87 1.61C81.98 1.61 82.09 1.6 82.2 1.6C82.21 1.6 82.21 1.6 82.22 1.6C82.3 1.6 82.38 1.6 82.46 1.6C82.82 1.6 83.18 1.61 83.54 1.61C83.58 1.61 83.62 1.61 83.65 1.61C83.67 1.61 83.68 1.61 83.7 1.62C83.7 1.62 83.7 1.62 83.7 1.62C83.72 1.62 83.73 1.62 83.74 1.62C83.74 1.62 83.75 1.62 83.75 1.62C83.76 1.62 83.77 1.62 83.78 1.62C83.78 1.62 83.79 1.62 83.8 1.62C83.81 1.62 83.81 1.62 83.82 1.62C83.83 1.62 83.83 1.62 83.84 1.62C83.84 1.62 83.85 1.62 83.86 1.62C83.87 1.62 83.87 1.62 83.88 1.62C83.89 1.62 83.9 1.62 83.91 1.62C83.91 1.62 83.92 1.62 83.92 1.62C83.93 1.62 83.94 1.62 83.95 1.62C83.95 1.62 83.96 1.62 83.96 1.62C83.97 1.62 83.98 1.62 83.99 1.62C84 1.62 84 1.62 84 1.62C84.01 1.62 84.02 1.62 84.03 1.62C84.04 1.62 84.04 1.62 84.05 1.62C84.06 1.62 84.07 1.62 84.08 1.62C84.08 1.62 84.08 1.62 84.09 1.62C84.1 1.62 84.11 1.62 84.12 1.62C84.12 1.62 84.13 1.62 84.13 1.62C84.14 1.62 84.15 1.62 84.17 1.62L84.17 1.62C84.18 1.62 84.2 1.62 84.21 1.62C84.21 1.62 84.21 1.62 84.21 1.62C84.3 1.63 84.38 1.63 84.47 1.63C84.47 1.63 84.47 1.63 84.47 1.63C84.49 1.63 84.5 1.63 84.51 1.63C84.51 1.63 84.51 1.63 84.52 1.63C84.53 1.63 84.54 1.63 84.56 1.63C84.56 1.63 84.56 1.63 84.56 1.63C84.57 1.63 84.59 1.64 84.6 1.64C84.6 1.64 84.6 1.64 84.6 1.64C84.61 1.64 84.63 1.64 84.64 1.64C84.64 1.64 84.64 1.64 84.65 1.64C84.66 1.64 84.67 1.64 84.69 1.64C84.69 1.64 84.68 1.64 84.69 1.64C84.7 1.64 84.71 1.64 84.73 1.64L84.73 1.64C84.75 1.64 84.76 1.64 84.77 1.64C84.77 1.64 84.77 1.64 84.77 1.64C87.11 1.71 89.41 1.89 91.69 2.18L91.69 2.18C91.71 2.18 91.72 2.18 91.73 2.18C91.75 2.19 91.76 2.19 91.77 2.19L91.78 2.19C91.8 2.19 91.83 2.2 91.86 2.2C91.87 2.2 91.89 2.2 91.9 2.21C91.9 2.21 91.9 2.21 91.9 2.21C91.92 2.21 91.93 2.21 91.94 2.21C91.94 2.21 91.94 2.21 91.94 2.21C92.03 2.22 92.11 2.23 92.19 2.24C92.21 2.25 92.22 2.25 92.24 2.25C92.25 2.25 92.26 2.25 92.27 2.25C92.28 2.25 92.28 2.26 92.28 2.26C92.3 2.26 92.31 2.26 92.32 2.26C92.32 2.26 92.32 2.26 92.33 2.26C92.33 2.26 92.34 2.26 92.36 2.27C92.36 2.27 92.36 2.27 92.37 2.27C92.38 2.27 92.39 2.27 92.4 2.27C92.4 2.27 92.41 2.27 92.41 2.27C92.42 2.27 92.43 2.28 92.44 2.28C92.44 2.28 92.45 2.28 92.45 2.28C92.46 2.28 92.47 2.28 92.48 2.28C92.48 2.28 92.49 2.28 92.49 2.28C92.5 2.29 92.51 2.29 92.52 2.29C92.52 2.29 92.53 2.29 92.53 2.29C92.54 2.29 92.55 2.29 92.56 2.29C92.57 2.3 92.57 2.3 92.57 2.3C92.58 2.3 92.59 2.3 92.6 2.3C92.6 2.3 92.61 2.3 92.62 2.3C92.62 2.3 92.63 2.3 92.64 2.3C92.65 2.31 92.65 2.31 92.66 2.31C92.67 2.31 92.67 2.31 92.69 2.31C92.69 2.31 92.69 2.31 92.7 2.31C92.71 2.31 92.72 2.32 92.73 2.32C92.73 2.32 92.74 2.32 92.74 2.32C92.75 2.32 92.76 2.32 92.78 2.32C92.78 2.32 92.78 2.32 92.78 2.32C92.8 2.33 92.81 2.33 92.82 2.33C92.82 2.33 92.83 2.33 92.83 2.33C92.84 2.33 92.85 2.33 92.86 2.34C92.86 2.34 92.87 2.34 92.88 2.34C92.89 2.34 92.89 2.34 92.9 2.34C92.9 2.34 92.91 2.34 92.92 2.34C92.93 2.34 92.93 2.35 92.94 2.35C92.94 2.35 92.95 2.35 92.96 2.35C92.96 2.35 92.97 2.35 92.98 2.35C92.99 2.35 92.99 2.35 93 2.36C93 2.36 93.01 2.36 93.02 2.36C93.03 2.36 93.03 2.36 93.04 2.36C93.05 2.36 93.05 2.36 93.06 2.36C93.07 2.36 93.07 2.37 93.08 2.37C93.09 2.37 93.09 2.37 93.1 2.37C93.11 2.37 93.11 2.37 93.12 2.37C93.13 2.37 93.13 2.37 93.14 2.38C93.15 2.38 93.15 2.38 93.16 2.38C93.17 2.38 93.17 2.38 93.18 2.38C93.19 2.38 93.2 2.38 93.2 2.39C93.21 2.39 93.21 2.39 93.22 2.39C93.23 2.39 93.23 2.39 93.24 2.39C93.25 2.39 93.25 2.39 93.25 2.39C93.26 2.39 93.27 2.4 93.28 2.4C93.28 2.4 93.29 2.4 93.29 2.4C93.35 2.41 93.41 2.42 93.48 2.43C93.48 2.43 93.48 2.43 93.48 2.43C93.51 2.43 93.53 2.43 93.56 2.44C93.57 2.44 93.58 2.44 93.59 2.44L93.6 2.44C93.61 2.45 93.62 2.45 93.63 2.45C93.64 2.45 93.64 2.45 93.64 2.45C93.65 2.45 93.66 2.45 93.67 2.45C93.67 2.45 93.67 2.45 93.67 2.45C93.69 2.46 93.7 2.46 93.71 2.46C93.71 2.46 93.71 2.46 93.72 2.46C93.73 2.46 93.74 2.47 93.75 2.47C93.77 2.47 93.78 2.47 93.79 2.47L93.79 2.47C117.09 6.07 136.82 20.56 147.74 40.63C135.06 22.77 115.34 10.36 92.68 7.5C92.2 10.27 87.68 12.43 82.16 12.43C76.75 12.43 72.29 10.34 71.68 7.65C58.32 9.53 45.96 14.78 35.51 22.52C35.53 22.49 35.55 22.45 35.56 22.42L35.56 22.42C35.45 22.52 35.34 22.62 35.24 22.72C27.46 28.54 20.75 35.74 15.47 43.96Z" fill="#FCD199" fill-opacity="1.000000" fill-rule="nonzero"/>
	<path id="path132" d="M93.23 93.29C93.25 93.28 93.27 93.27 93.3 93.26C93.27 93.27 93.25 93.28 93.23 93.29ZM93.32 93.25C93.33 93.24 93.35 93.24 93.37 93.23C93.35 93.24 93.33 93.24 93.32 93.25ZM93.39 93.22C93.41 93.21 93.42 93.2 93.44 93.2C93.42 93.2 93.41 93.21 93.39 93.22ZM93.46 93.19C93.48 93.18 93.5 93.17 93.52 93.16C93.5 93.17 93.48 93.18 93.46 93.19ZM93.53 93.16C93.55 93.15 93.58 93.14 93.6 93.13C93.58 93.14 93.55 93.15 93.53 93.16ZM93.61 93.13C93.63 93.12 93.65 93.11 93.67 93.1C93.65 93.11 93.63 93.12 93.61 93.13ZM93.69 93.09C93.71 93.08 93.73 93.08 93.75 93.07C93.73 93.08 93.71 93.08 93.69 93.09ZM93.76 93.06C93.78 93.05 93.8 93.04 93.83 93.03C93.8 93.04 93.78 93.05 93.76 93.06ZM93.83 93.03C93.88 93.01 93.93 92.99 93.98 92.97C93.93 92.99 93.88 93.01 93.83 93.03ZM93.98 92.97C94 92.96 94.03 92.95 94.05 92.94C94.03 92.95 94.01 92.96 93.98 92.97ZM94.06 92.93C94.16 92.89 94.25 92.85 94.35 92.81C94.25 92.85 94.16 92.89 94.06 92.93ZM94.36 92.8C94.58 92.71 94.8 92.61 95.03 92.52C94.8 92.61 94.58 92.71 94.36 92.8ZM95.03 92.51C95.13 92.47 95.23 92.43 95.33 92.38C95.23 92.43 95.13 92.47 95.03 92.51ZM95.33 92.38C95.43 92.34 95.53 92.3 95.62 92.25C95.53 92.3 95.43 92.34 95.33 92.38ZM95.63 92.25C95.73 92.21 95.83 92.16 95.92 92.12C95.83 92.16 95.73 92.21 95.63 92.25ZM95.93 92.12C95.95 92.11 95.97 92.1 96 92.09C95.97 92.1 95.95 92.11 95.93 92.12ZM96 92.09C96.07 92.05 96.15 92.02 96.22 91.99C96.15 92.02 96.07 92.05 96 92.09ZM96.23 91.99C96.25 91.97 96.27 91.97 96.29 91.96C96.27 91.97 96.25 91.98 96.23 91.99ZM96.3 91.95C96.33 91.94 96.35 91.93 96.37 91.92C96.35 91.93 96.33 91.94 96.3 91.95ZM96.37 91.92C96.42 91.9 96.47 91.88 96.51 91.86C96.47 91.88 96.42 91.9 96.37 91.92ZM96.53 91.85C96.55 91.84 96.57 91.83 96.58 91.83C96.57 91.83 96.55 91.84 96.53 91.85ZM96.6 91.82C96.62 91.81 96.64 91.8 96.66 91.79C96.64 91.8 96.62 91.81 96.6 91.82ZM96.67 91.79C96.72 91.77 96.76 91.74 96.81 91.72C96.76 91.74 96.72 91.77 96.67 91.79ZM96.83 91.71C96.85 91.71 96.86 91.7 96.88 91.69C96.86 91.7 96.85 91.71 96.83 91.71ZM96.9 91.68C96.92 91.68 96.93 91.67 96.95 91.66C96.93 91.67 96.92 91.67 96.9 91.68ZM96.97 91.65C96.99 91.64 97.01 91.63 97.03 91.63C97.01 91.63 96.99 91.64 96.97 91.65ZM97.04 91.62C97.06 91.61 97.09 91.6 97.11 91.59C97.08 91.6 97.06 91.61 97.04 91.62ZM97.13 91.58C97.14 91.57 97.16 91.57 97.18 91.56C97.16 91.57 97.14 91.57 97.13 91.58ZM97.2 91.55C97.21 91.54 97.23 91.53 97.24 91.53C97.23 91.53 97.21 91.54 97.2 91.55ZM97.27 91.51C97.29 91.51 97.3 91.5 97.31 91.5C97.3 91.5 97.29 91.51 97.27 91.51ZM97.34 91.48C97.35 91.48 97.36 91.47 97.37 91.47C97.36 91.47 97.35 91.48 97.34 91.48ZM97.44 91.44C97.45 91.43 97.46 91.43 97.47 91.43C97.46 91.43 97.45 91.43 97.44 91.44ZM97.51 91.41C97.51 91.4 97.53 91.4 97.53 91.4C97.52 91.4 97.51 91.4 97.51 91.41ZM97.57 91.38C97.58 91.37 97.59 91.37 97.6 91.37C97.59 91.37 97.58 91.37 97.57 91.38ZM97.64 91.35C97.64 91.35 97.65 91.34 97.65 91.34C97.65 91.34 97.64 91.35 97.64 91.35ZM97.82 91.27C97.82 91.26 97.82 91.26 97.82 91.26C97.82 91.26 97.82 91.26 97.82 91.27ZM97.88 91.24L97.88 91.24L97.88 91.24Z" fill="#5B6D54" fill-opacity="1.000000" fill-rule="nonzero"/>
	<path id="path136" d="M45.5 103.82C39.8 103.82 34.25 103.3 28.9 102.24C26.26 101.58 23.68 100.79 21.16 99.85C16.52 98.12 13.2 93.96 12.44 89.03C11.81 84.85 11.51 80.55 11.58 76.18C11.95 55.1 21.01 36.14 35.24 22.72C35.33 22.65 35.42 22.59 35.51 22.52C30.12 32.67 26.96 44.2 26.75 56.45C26.75 56.68 26.75 56.91 26.74 57.14C26.64 70 35.69 81.04 48.21 83.43C53.38 84.42 58.74 84.91 64.24 84.91C79.44 84.91 95.71 81.22 111.98 74.37C123.53 69.5 134.02 63.47 143.04 56.45C132.45 70.71 116.72 82.56 97.88 91.23L97.88 91.24C97.86 91.24 97.84 91.25 97.83 91.26C97.82 91.26 97.82 91.26 97.82 91.26C97.76 91.29 97.7 91.32 97.65 91.34C97.65 91.34 97.64 91.35 97.64 91.35C97.63 91.35 97.61 91.36 97.6 91.37C97.59 91.37 97.58 91.37 97.58 91.38C97.56 91.38 97.55 91.39 97.53 91.4C97.53 91.4 97.51 91.4 97.51 91.41C97.49 91.41 97.48 91.42 97.47 91.42C97.46 91.43 97.45 91.43 97.44 91.44C97.42 91.45 97.4 91.46 97.37 91.47C97.36 91.47 97.35 91.48 97.34 91.48C97.33 91.49 97.32 91.49 97.31 91.5C97.3 91.5 97.29 91.51 97.27 91.51C97.26 91.52 97.25 91.52 97.24 91.53C97.23 91.53 97.22 91.54 97.2 91.55C97.19 91.55 97.18 91.55 97.18 91.56C97.16 91.57 97.14 91.57 97.13 91.58C97.12 91.58 97.11 91.59 97.11 91.59C97.09 91.6 97.06 91.61 97.04 91.62C97.04 91.62 97.03 91.62 97.03 91.62C97.01 91.63 96.99 91.64 96.97 91.65C96.97 91.65 96.96 91.66 96.95 91.66C96.93 91.67 96.92 91.68 96.9 91.68C96.9 91.69 96.89 91.69 96.88 91.69C96.86 91.7 96.85 91.71 96.83 91.71C96.83 91.72 96.82 91.72 96.81 91.72C96.76 91.74 96.72 91.77 96.67 91.79C96.67 91.79 96.66 91.79 96.66 91.79C96.64 91.8 96.62 91.81 96.6 91.82C96.59 91.82 96.59 91.82 96.59 91.82C96.57 91.83 96.55 91.84 96.53 91.85C96.52 91.85 96.52 91.85 96.52 91.86C96.47 91.88 96.42 91.9 96.37 91.92L96.37 91.92C96.35 91.93 96.33 91.94 96.3 91.95C96.3 91.95 96.29 91.95 96.29 91.96C96.27 91.97 96.25 91.97 96.23 91.98C96.23 91.99 96.22 91.99 96.22 91.99C96.15 92.02 96.07 92.05 96 92.09C96 92.09 96 92.09 96 92.09C95.97 92.1 95.95 92.11 95.93 92.12C95.93 92.12 95.92 92.12 95.92 92.12C95.83 92.16 95.73 92.21 95.63 92.25C95.63 92.25 95.63 92.25 95.63 92.25C95.53 92.3 95.43 92.34 95.33 92.38C95.33 92.38 95.33 92.38 95.33 92.38C95.23 92.43 95.13 92.47 95.03 92.51C95.03 92.51 95.03 92.51 95.03 92.51C94.8 92.61 94.58 92.71 94.36 92.8L94.35 92.81C94.25 92.85 94.16 92.89 94.06 92.93C94.06 92.93 94.05 92.94 94.05 92.94C94.03 92.95 94 92.95 93.98 92.96C93.98 92.97 93.98 92.97 93.98 92.97C93.93 92.99 93.88 93.01 93.83 93.03C93.83 93.03 93.83 93.03 93.83 93.03C93.8 93.04 93.78 93.05 93.76 93.06C93.75 93.06 93.75 93.06 93.75 93.07C93.73 93.08 93.71 93.08 93.69 93.09C93.68 93.09 93.68 93.1 93.67 93.1C93.65 93.11 93.63 93.12 93.61 93.13C93.6 93.13 93.6 93.13 93.6 93.13C93.58 93.14 93.55 93.15 93.53 93.16C93.53 93.16 93.53 93.16 93.53 93.16C93.5 93.17 93.48 93.18 93.46 93.19C93.45 93.19 93.45 93.19 93.44 93.2C93.42 93.2 93.41 93.21 93.39 93.22C93.38 93.22 93.37 93.22 93.37 93.23C93.35 93.24 93.33 93.24 93.32 93.25C93.31 93.25 93.3 93.26 93.3 93.26C93.27 93.27 93.25 93.28 93.23 93.29C76.96 100.14 60.69 103.82 45.5 103.82Z" fill="#BF6700" fill-opacity="1.000000" fill-rule="nonzero"/>
	<path id="path140" d="M35.24 22.72C35.35 22.62 35.45 22.52 35.56 22.42L35.56 22.42C35.55 22.45 35.53 22.48 35.51 22.52C35.42 22.59 35.33 22.65 35.24 22.72Z" fill="#D19982" fill-opacity="1.000000" fill-rule="nonzero"/>
	<path id="path144" d="M45.91 30.31C45.14 32.76 43.8 34.55 42.96 34.28C42.11 34 42.04 31.77 42.82 29.32C43.59 26.88 44.92 25.09 45.77 25.36C46.56 25.61 46.68 27.6 46.03 29.9L45.91 30.31Z" fill="#FCE69F" fill-opacity="1.000000" fill-rule="nonzero"/>
	<path id="path148" d="M58.5 31.89C58.06 34.42 56.98 36.37 56.1 36.22C55.23 36.07 54.86 33.86 55.3 31.33C55.73 28.8 56.81 26.85 57.69 27C58.51 27.14 58.89 29.09 58.56 31.47L58.5 31.89Z" fill="#FCE69F" fill-opacity="1.000000" fill-rule="nonzero"/>
	<path id="path152" d="M74.75 31.38C75.1 33.92 74.67 36.12 73.78 36.24C72.9 36.37 71.89 34.38 71.53 31.84C71.18 29.29 71.61 27.1 72.49 26.98C73.32 26.86 74.27 28.6 74.68 30.96L74.75 31.38Z" fill="#FCE69F" fill-opacity="1.000000" fill-rule="nonzero"/>
	<path id="path156" d="M88.33 26.12C89.68 28.3 90.17 30.49 89.41 30.96C88.66 31.44 86.93 30.03 85.58 27.86C84.23 25.68 83.75 23.49 84.5 23.02C85.21 22.57 86.78 23.77 88.1 25.77L88.33 26.12Z" fill="#FCE69F" fill-opacity="1.000000" fill-rule="nonzero"/>
	<path id="path160" d="M98.76 17.41C100.56 19.22 101.53 21.23 100.9 21.87C100.27 22.5 98.27 21.54 96.47 19.73C94.66 17.91 93.7 15.9 94.33 15.26C94.91 14.67 96.72 15.47 98.45 17.11L98.76 17.41Z" fill="#FCE69F" fill-opacity="1.000000" fill-rule="nonzero"/>
	<path id="path164" d="M47.58 71.83C46.74 71.83 46.05 71.14 46.05 70.29C46.05 69.43 46.74 68.74 47.58 68.74C48.43 68.74 49.11 69.43 49.11 70.29C49.11 71.14 48.43 71.83 47.58 71.83Z" fill="#BF6700" fill-opacity="1.000000" fill-rule="nonzero"/>
	<path id="path168" d="M72.29 57.15C71.45 57.15 70.76 56.45 70.76 55.6C70.76 54.75 71.45 54.05 72.29 54.05C73.14 54.05 73.83 54.75 73.83 55.6C73.83 56.45 73.14 57.15 72.29 57.15Z" fill="#BF6700" fill-opacity="1.000000" fill-rule="nonzero"/>
	<path id="path172" d="M77.36 73.23C76.51 73.23 75.83 72.54 75.83 71.69C75.83 70.83 76.51 70.14 77.36 70.14C78.2 70.14 78.89 70.83 78.89 71.69C78.89 72.54 78.2 73.23 77.36 73.23Z" fill="#E99335" fill-opacity="1.000000" fill-rule="nonzero"/>
	<path id="path176" d="M92.14 54.31C91.3 54.31 90.61 53.62 90.61 52.77C90.61 51.91 91.3 51.22 92.14 51.22C92.99 51.22 93.67 51.91 93.67 52.77C93.67 53.62 92.99 54.31 92.14 54.31Z" fill="#E99335" fill-opacity="1.000000" fill-rule="nonzero"/>
	<path id="path180" d="M107.96 66.96C107.11 66.96 106.43 66.27 106.43 65.42C106.43 64.56 107.11 63.87 107.96 63.87C108.81 63.87 109.49 64.56 109.49 65.42C109.49 66.27 108.81 66.96 107.96 66.96Z" fill="#BF6700" fill-opacity="1.000000" fill-rule="nonzero"/>
	<path id="path184" d="M110.01 43.58C109.16 43.58 108.48 42.88 108.48 42.03C108.48 41.18 109.16 40.48 110.01 40.48C110.85 40.48 111.54 41.18 111.54 42.03C111.54 42.88 110.85 43.58 110.01 43.58Z" fill="#BF6700" fill-opacity="1.000000" fill-rule="nonzero"/>
	<path id="path188" d="M121.02 30.33C120.18 30.33 119.49 29.64 119.49 28.79C119.49 27.93 120.18 27.24 121.02 27.24C121.87 27.24 122.55 27.93 122.55 28.79C122.55 29.64 121.87 30.33 121.02 30.33Z" fill="#BF6700" fill-opacity="1.000000" fill-rule="nonzero"/>
	<path id="path192" d="M47.89 55.78C47.04 55.78 46.36 55.09 46.36 54.23C46.36 53.38 47.04 52.69 47.89 52.69C48.74 52.69 49.42 53.38 49.42 54.23C49.42 55.09 48.74 55.78 47.89 55.78Z" fill="#E99335" fill-opacity="1.000000" fill-rule="nonzero"/>
	<path id="path196" d="M136.05 44.89C135.2 44.89 134.52 44.2 134.52 43.34C134.52 42.49 135.2 41.8 136.05 41.8C136.89 41.8 137.58 42.49 137.58 43.34C137.58 44.2 136.89 44.89 136.05 44.89Z" fill="#BF6700" fill-opacity="1.000000" fill-rule="nonzero"/>
	<path id="path200" d="M126.11 61.77C125.27 61.77 124.58 61.07 124.58 60.22C124.58 59.37 125.27 58.68 126.11 58.68C126.96 58.68 127.65 59.37 127.65 60.22C127.65 61.07 126.96 61.77 126.11 61.77Z" fill="#E99335" fill-opacity="1.000000" fill-rule="nonzero"/>
	<path id="path204" d="M82.44 3.21C42.85 3.21 10.28 35.35 9.59 75.4C9.52 79.65 9.81 83.92 10.45 88.08C11.11 92.39 14.02 95.99 18.03 97.5C38.87 105.32 65.35 103.29 92.61 91.8C115.76 82.05 133.73 68.09 144.59 51.43C147.07 47.63 147.17 42.67 144.86 38.81C131.78 16.93 108.89 3.63 83.63 3.22C83.23 3.22 82.83 3.21 82.44 3.21ZM45.47 105.44C35.22 105.44 25.64 103.79 16.92 100.52C11.83 98.6 8.14 94.03 7.3 88.58C6.63 84.23 6.33 79.78 6.4 75.34C6.75 54.96 15.01 35.87 29.65 21.61C44.28 7.35 63.47 -0.33 83.68 0.01C96.78 0.22 109.65 3.85 120.9 10.52C131.81 16.99 141.04 26.2 147.59 37.14C150.53 42.07 150.4 48.37 147.25 53.2C136.05 70.39 117.58 84.77 93.84 94.77C80.09 100.57 66.57 104.04 53.66 105.1C50.89 105.32 48.15 105.44 45.47 105.44Z" fill="#6D184E" fill-opacity="1.000000" fill-rule="nonzero"/>
	<path id="path208" d="M128.2 152.85C127.28 157.85 122.52 161.15 117.57 160.22C112.61 159.29 109.34 154.49 110.26 149.49C110.8 146.56 111.97 147.23 113.87 147.89C115.21 148.36 116.9 148.83 119 148.05C124.99 145.83 129.12 147.85 128.2 152.85Z" fill="#FCAF15" fill-opacity="1.000000" fill-rule="nonzero"/>
	<path id="path212" d="M117.55 160.22C117.55 160.22 117.55 160.22 117.55 160.22L117.55 160.22Z" fill="#FFF6AF" fill-opacity="1.000000" fill-rule="nonzero"/>
	<path id="path216" d="M117.55 160.22L117.55 160.22L117.55 160.22ZM123.65 153.86C123.87 153.3 124.05 152.71 124.16 152.1C124.58 149.79 123.92 148.13 122.51 147.21C122.82 147.18 123.12 147.17 123.42 147.17C126.84 147.17 128.85 149.2 128.21 152.8C128.41 151.65 128.34 150.66 128.04 149.85C127 151.46 125.44 152.94 123.65 153.86ZM128.2 152.83C128.2 152.83 128.2 152.83 128.2 152.83C128.2 152.83 128.2 152.83 128.2 152.83ZM128.2 152.82C128.2 152.81 128.21 152.8 128.21 152.8C128.21 152.8 128.2 152.81 128.2 152.82Z" fill="#FED78A" fill-opacity="1.000000" fill-rule="nonzero"/>
	<path id="path220" d="M117.57 160.22C117.56 160.22 117.56 160.22 117.55 160.22C117.55 160.22 117.56 160.22 117.57 160.22ZM127.62 154.8C127.88 154.19 128.07 153.53 128.2 152.85C128.2 152.85 128.2 152.84 128.2 152.83C128.2 152.84 128.2 152.85 128.2 152.85C128.07 153.53 127.88 154.19 127.62 154.8Z" fill="#D18126" fill-opacity="1.000000" fill-rule="nonzero"/>
	<path id="path224" d="M110.26 149.49C110.26 149.49 110.26 149.49 110.27 149.49C110.26 149.49 110.26 149.49 110.26 149.49Z" fill="#6D184E" fill-opacity="1.000000" fill-rule="nonzero"/>
	<path id="path228" d="M117.55 160.22C112.6 159.28 109.34 154.49 110.26 149.5C110.26 149.49 110.26 149.49 110.26 149.49C110.54 147.97 110.99 147.42 111.63 147.33C112.55 150.59 115.05 154.08 118.58 154.74C119 154.82 119.42 154.85 119.83 154.85C121.16 154.85 122.46 154.48 123.65 153.86C122.32 157.2 119.15 159.45 115.59 159.61C116.21 159.88 116.86 160.09 117.55 160.22ZM128.2 152.83C128.2 152.82 128.21 152.82 128.21 152.82C128.21 152.82 128.2 152.82 128.2 152.83ZM128.21 152.8C128.21 152.8 128.21 152.8 128.21 152.8C128.21 152.8 128.21 152.8 128.21 152.8Z" fill="#D18126" fill-opacity="1.000000" fill-rule="nonzero"/>
	<path id="path232" d="M119.3 160.38C122.92 160.35 126.2 158.14 127.62 154.8C126.2 158.14 122.92 160.35 119.3 160.38Z" fill="#D3B392" fill-opacity="1.000000" fill-rule="nonzero"/>
	<path id="path236" d="M119.24 160.38C118.69 160.38 118.13 160.33 117.57 160.22C117.56 160.22 117.56 160.22 117.55 160.22L117.55 160.22C116.86 160.09 116.21 159.88 115.59 159.61C119.15 159.45 122.32 157.2 123.65 153.86C125.45 152.94 127.01 151.46 128.04 149.85C128.34 150.66 128.41 151.65 128.21 152.8C128.21 152.8 128.21 152.8 128.21 152.8C128.21 152.8 128.21 152.81 128.21 152.82C128.2 152.82 128.2 152.82 128.2 152.83C128.2 152.83 128.2 152.83 128.2 152.83C128.2 152.84 128.2 152.85 128.2 152.85C128.07 153.53 127.88 154.19 127.62 154.8C126.2 158.14 122.92 160.35 119.3 160.38C119.28 160.38 119.26 160.38 119.24 160.38Z" fill="#D29D78" fill-opacity="1.000000" fill-rule="nonzero"/>
	<path id="path240" d="M112.04 148.97C111.98 149.12 111.91 149.38 111.83 149.79C111.46 151.78 111.89 153.8 113.02 155.47C114.17 157.15 115.88 158.27 117.86 158.64C119.84 159.01 121.84 158.58 123.49 157.43C125.15 156.28 126.27 154.55 126.63 152.56C126.81 151.58 126.84 150.25 125.94 149.49C124.78 148.5 122.33 148.53 119.55 149.56C116.69 150.62 114.43 149.8 112.93 149.26C112.65 149.16 112.29 149.03 112.04 148.97ZM119.25 161.99C118.6 161.99 117.93 161.93 117.27 161.8C114.46 161.28 112.02 159.68 110.4 157.3C108.78 154.92 108.17 152.04 108.69 149.2C108.9 148.1 109.28 146.74 110.43 146.07C111.63 145.38 112.89 145.83 114.01 146.23C115.32 146.71 116.68 147.2 118.45 146.54C122.42 145.07 125.9 145.25 128 147.03C129.61 148.41 130.24 150.58 129.77 153.14C129.25 155.99 127.66 158.45 125.3 160.08C123.49 161.34 121.4 161.99 119.25 161.99Z" fill="#6D184E" fill-opacity="1.000000" fill-rule="nonzero"/>
	<path id="path244" d="M140.06 89.47C140.71 89.77 141.46 89.69 142.07 89.33C144.59 87.84 152.64 82.9 154 79.98C155.52 76.73 135.51 87.36 140.06 89.47Z" fill="#E5525F" fill-opacity="1.000000" fill-rule="nonzero"/>
	<path id="path248" d="M88.62 203.67C48.31 203.67 15.63 199.82 15.63 195.07C15.63 190.33 48.31 186.48 88.62 186.48C128.92 186.48 161.6 190.33 161.6 195.07C161.6 199.82 128.92 203.67 88.62 203.67Z" fill="#F2A40C" fill-opacity="1.000000" fill-rule="nonzero"/>
</svg>
