<svg width="39" height="38" fill="none" xmlns="http://www.w3.org/2000/svg"><path d="m31.545 6.765 3.642-.115v12.927h-4.394l.752-12.812Z" fill="#fff"/><ellipse cx="20.327" cy="29.042" rx="4.337" ry="5.54" fill="#fff"/><path d="M12.37 10.978c0 3.06-2.114 2.54-4.51 2.54-2.394 0-3.989-.808-3.989-1.905 0-3.06 1.768-3.463 4.163-3.463 2.395 0 4.337-.232 4.337 2.828Z" fill="#fff"/><path d="M1.717 1.037c-.214.12-.495.375-.64.57l-.257.367V11.118l.222.57c.803 2.054 2.527 3.418 4.602 3.63l.555.06.043 10.311L6.284 36l.188.307c.111.17.359.418.555.554.316.222.427.247 1.008.247.572 0 .691-.025.99-.23a2.59 2.59 0 0 0 .546-.554l.214-.315.042-10.311.043-10.32.555-.06c2.126-.212 3.987-1.738 4.636-3.774.188-.588.188-.682.188-5.079V1.983l-.23-.333c-.376-.528-.77-.75-1.427-.784-.7-.034-1.203.196-1.588.742l-.256.366-.042 2.14-.043 2.147H9.87l-.043-2.14c-.042-2.104-.042-2.138-.256-2.445-.358-.537-.794-.775-1.443-.81-.7-.034-1.203.196-1.588.742l-.256.366-.042 2.14-.043 2.147H4.406l-.043-2.14-.042-2.138-.23-.333C3.714 1.122 3.32.9 2.663.866c-.47-.025-.631.009-.947.17Zm9.903 9.1c0 .52-.418 1.091-1.024 1.415-.273.145-.512.162-2.561.162-2.152 0-2.28-.008-2.604-.187-.581-.307-.982-.878-.982-1.39v-.255H11.62v.256ZM19.414 1.037a2.41 2.41 0 0 0-.64.57l-.256.367-.043 9.502-.042 9.501-.718.213c-1.792.511-3.133 1.585-3.884 3.093-.657 1.338-.768 1.892-.768 3.835 0 1.423.025 1.764.179 2.386.836 3.298 2.69 5.547 5.276 6.408.504.162.777.196 1.75.196s1.247-.034 1.75-.196c2.587-.86 4.44-3.11 5.277-6.408.153-.622.179-.963.179-2.386 0-1.432-.026-1.755-.188-2.343-.64-2.36-2.169-3.929-4.465-4.585l-.717-.213-.043-9.493-.043-9.501-.23-.333c-.376-.528-.768-.75-1.426-.784-.47-.025-.632.009-.948.17Zm2.536 23.672c.956.324 1.58 1.066 1.819 2.14.162.74.068 2.598-.171 3.357-.444 1.397-1.29 2.573-2.203 3.033-.572.29-1.673.299-2.237.009-.973-.503-1.758-1.594-2.236-3.085-.171-.562-.197-.81-.197-2.045 0-1.372.009-1.415.248-1.943.427-.92 1.297-1.517 2.441-1.67 0 0 2.007.034 2.536.204ZM35.876 1.003c-1.092.57-2.783 2.122-3.824 3.494-2.596 3.45-4.107 8.325-4.457 14.418-.128 2.232-.068 2.565.52 3.153.573.57.727.596 3.97.596h2.784v13.183l.196.358c.103.204.359.486.564.639.333.239.418.264 1.024.264.58 0 .7-.025 1-.23.178-.128.426-.375.546-.554l.213-.315V1.983l-.23-.333c-.376-.536-.769-.75-1.426-.784-.427-.017-.64.009-.88.137ZM34.87 12.95V19H31.258l.06-.878c.153-2.343.725-5.172 1.468-7.26.495-1.38 1.827-3.962 2.04-3.962.026 0 .043 2.718.043 6.05Z" fill="#FF7020"/></svg>