<svg aria-hidden="true" style="position: absolute; width: 0; height: 0; overflow: hidden;" version="1.1" xmlns="http://www.w3.org/2000/svg" xmlns:xlink="http://www.w3.org/1999/xlink">
<defs>
<symbol id="icon-logo" viewBox="0 0 32 32">
<path fill="#ffa132" style="fill: var(--color1, #ffa132)" d="M25.327 7.029l2.682-0.087v9.477h-3.239l0.557-9.391z"></path>
<path fill="#ffa132" style="fill: var(--color1, #ffa132)" d="M20.27 23.37c0 2.244-1.428 4.064-3.19 4.064s-3.19-1.819-3.19-4.064c0-2.244 1.428-4.064 3.19-4.064s3.19 1.819 3.19 4.064z"></path>
<path fill="#ffa132" style="fill: var(--color1, #ffa132)" d="M11.226 10.114c0 2.249-1.557 1.865-3.316 1.865-1.769 0-2.941-0.596-2.941-1.394 0-2.249 1.307-2.547 3.066-2.547s3.191-0.163 3.191 2.076z"></path>
<path fill="#fff" style="fill: var(--color2, #fff)" d="M3.383 2.819c-0.154 0.096-0.365 0.279-0.471 0.423l-0.183 0.269v6.709l0.163 0.413c0.586 1.509 1.855 2.509 3.383 2.662l0.404 0.048 0.038 7.564 0.029 7.564 0.135 0.221c0.087 0.125 0.269 0.308 0.413 0.404 0.231 0.163 0.308 0.183 0.74 0.183 0.423 0 0.509-0.019 0.73-0.163 0.125-0.096 0.308-0.279 0.394-0.413l0.163-0.231 0.058-15.129 0.413-0.048c1.557-0.154 2.932-1.269 3.412-2.768 0.135-0.433 0.135-0.5 0.135-3.72v-3.287l-0.173-0.25c-0.279-0.384-0.567-0.548-1.048-0.577-0.509-0.019-0.884 0.144-1.163 0.548l-0.192 0.269-0.029 1.567-0.029 1.576h-1.326l-0.029-1.567c-0.029-1.547-0.029-1.567-0.192-1.797-0.259-0.394-0.577-0.567-1.057-0.596-0.519-0.019-0.884 0.144-1.173 0.548l-0.183 0.269-0.029 1.567-0.038 1.576h-1.317l-0.058-3.133-0.173-0.25c-0.279-0.384-0.567-0.548-1.048-0.577-0.346-0.019-0.471 0.010-0.702 0.125zM10.669 9.499c0 0.384-0.308 0.798-0.75 1.038-0.202 0.106-0.375 0.115-1.884 0.115-1.586 0-1.682 0-1.922-0.135-0.423-0.221-0.721-0.644-0.721-1.019v-0.192h5.277v0.192zM16.407 2.819c-0.163 0.096-0.365 0.279-0.471 0.423l-0.192 0.269-0.058 13.937-0.529 0.154c-1.317 0.375-2.307 1.163-2.864 2.278-0.481 0.98-0.557 1.384-0.557 2.807 0 1.048 0.019 1.298 0.125 1.749 0.615 2.422 1.98 4.075 3.883 4.7 0.375 0.125 0.577 0.144 1.288 0.144 0.721 0 0.913-0.019 1.288-0.144 1.903-0.625 3.268-2.278 3.883-4.7 0.115-0.452 0.135-0.702 0.135-1.749s-0.019-1.288-0.144-1.72c-0.471-1.73-1.596-2.874-3.287-3.364l-0.519-0.154-0.038-6.959-0.029-6.968-0.173-0.25c-0.269-0.384-0.557-0.548-1.048-0.577-0.346-0.019-0.461 0.010-0.692 0.125zM18.272 20.187c0.702 0.24 1.163 0.779 1.336 1.567 0.115 0.548 0.048 1.913-0.125 2.461-0.327 1.028-0.952 1.893-1.624 2.23-0.413 0.211-1.23 0.221-1.644 0.010-0.711-0.375-1.298-1.173-1.644-2.268-0.125-0.413-0.144-0.596-0.144-1.499 0-1.009 0-1.038 0.183-1.423 0.308-0.673 0.952-1.115 1.797-1.23 0 0 1.471 0.029 1.865 0.154zM28.508 2.8c-0.798 0.413-2.047 1.557-2.807 2.557-1.913 2.537-3.028 6.113-3.278 10.582-0.096 1.634-0.058 1.884 0.384 2.307 0.413 0.423 0.529 0.442 2.912 0.442h2.047v9.669l0.144 0.259c0.077 0.154 0.269 0.356 0.423 0.471 0.24 0.173 0.308 0.192 0.75 0.192 0.423 0 0.519-0.019 0.73-0.163 0.135-0.096 0.317-0.279 0.404-0.413l0.154-0.231v-24.952l-0.163-0.25c-0.279-0.394-0.567-0.548-1.048-0.577-0.317-0.010-0.471 0.010-0.654 0.106zM27.768 11.565v4.431h-2.653l0.038-0.644c0.115-1.72 0.538-3.787 1.086-5.325 0.365-1.009 1.346-2.903 1.499-2.903 0.019 0 0.029 1.99 0.029 4.441z"></path>
</symbol>

<symbol id="icon-yourmeal" viewBox="0 0 200 32">
<path fill="#ff7020" style="fill: var(--color1, #ff7020)" d="M13.243 31.863c-1.141 0-2.011-0.308-2.611-0.924s-0.9-1.496-0.9-2.64v-12.76l1.44 3.916-10.621-14.741c-0.344-0.48-0.551-1.079-0.551-1.726 0-0.090 0.004-0.178 0.012-0.266l-0.001 0.011c0.060-0.733 0.36-1.364 0.9-1.892s1.307-0.792 2.296-0.792c0.72 0 1.365 0.176 1.935 0.528 0.6 0.352 1.171 0.909 1.711 1.672l7.2 10.164h-1.44l7.2-10.164c0.571-0.792 1.125-1.349 1.667-1.672 0.569-0.352 1.229-0.528 1.979-0.528 0.96 0 1.711 0.249 2.251 0.748 0.54 0.469 0.825 1.071 0.855 1.804 0.031 0.704-0.225 1.437-0.765 2.2l-10.485 14.653 1.395-3.917v12.76c0 2.377-1.155 3.565-3.464 3.565zM36.819 31.951c-2.369 0-4.44-0.455-6.211-1.364-1.719-0.896-3.101-2.235-4.024-3.868l-0.025-0.048c-0.96-1.701-1.44-3.711-1.44-6.028 0-1.731 0.269-3.285 0.809-4.664 0.537-1.382 1.333-2.557 2.336-3.517l0.004-0.003c1.035-0.979 2.282-1.746 3.664-2.224l0.072-0.022c1.44-0.528 3.045-0.792 4.815-0.792 2.371 0 4.427 0.455 6.165 1.364 1.771 0.909 3.136 2.2 4.096 3.872 0.989 1.673 1.484 3.667 1.484 5.985 0 1.76-0.284 3.329-0.853 4.707-0.545 1.394-1.34 2.583-2.34 3.564l-0.002 0.002c-1.020 0.997-2.265 1.76-3.735 2.288-1.44 0.499-3.045 0.748-4.816 0.748zM36.819 26.977c0.991 0 1.845-0.233 2.565-0.703s1.291-1.16 1.709-2.068c0.421-0.939 0.631-2.127 0.631-3.564 0-2.141-0.449-3.712-1.349-4.708-0.9-1.027-2.085-1.54-3.556-1.54-0.96 0-1.815 0.22-2.565 0.66-0.72 0.44-1.289 1.128-1.709 2.067-0.391 0.911-0.587 2.084-0.587 3.52 0 2.143 0.451 3.741 1.352 4.797 0.9 1.027 2.069 1.54 3.509 1.54zM60.844 31.951c-1.86 0-3.405-0.337-4.635-1.013-1.231-0.673-2.147-1.685-2.747-3.035-0.569-1.379-0.853-3.080-0.853-5.104v-9.945c0-1.115 0.284-1.951 0.853-2.507 0.6-0.559 1.44-0.837 2.521-0.837 1.080 0 1.92 0.28 2.52 0.836 0.6 0.557 0.9 1.393 0.9 2.508v10.12c0 1.292 0.271 2.26 0.811 2.905 0.54 0.616 1.395 0.924 2.564 0.924 1.291 0 2.341-0.44 3.151-1.32 0.84-0.909 1.26-2.097 1.26-3.564v-9.065c0-1.115 0.285-1.951 0.855-2.507 0.6-0.559 1.44-0.837 2.52-0.837 1.111 0 1.951 0.28 2.52 0.836 0.6 0.557 0.901 1.393 0.901 2.508v15.621c0 2.259-1.096 3.388-3.285 3.388-1.080 0-1.905-0.293-2.475-0.88-0.571-0.587-0.856-1.423-0.856-2.508v-2.948l0.675 1.716c-0.66 1.496-1.604 2.653-2.835 3.476-1.229 0.821-2.685 1.232-4.365 1.232zM82.753 31.863c-1.14 0-2.011-0.293-2.609-0.88-0.6-0.587-0.901-1.423-0.901-2.508v-15.621c0-1.085 0.285-1.907 0.856-2.464 0.6-0.587 1.425-0.88 2.475-0.88 1.080 0 1.905 0.293 2.475 0.88 0.571 0.557 0.856 1.379 0.856 2.464v2.288h-0.451c0.36-1.76 1.156-3.124 2.387-4.092 1.229-0.968 2.819-1.511 4.769-1.627 0.749-0.060 1.32 0.131 1.709 0.571 0.42 0.411 0.645 1.1 0.676 2.068 0.060 0.909-0.136 1.628-0.587 2.157-0.419 0.528-1.139 0.851-2.16 0.968l-1.035 0.088c-1.709 0.147-2.984 0.631-3.824 1.451-0.811 0.823-1.216 2.011-1.216 3.565v8.184c0 1.085-0.3 1.92-0.9 2.507-0.569 0.588-1.409 0.881-2.52 0.881zM101.613 31.863c-1.019 0-1.8-0.279-2.339-0.836-0.54-0.557-0.811-1.335-0.811-2.333v-25.475c0-0.997 0.285-1.773 0.856-2.332 0.6-0.557 1.409-0.836 2.429-0.836 0.9 0 1.605 0.176 2.116 0.528 0.539 0.323 1.035 0.895 1.484 1.716l10.396 18.569h-1.531l10.396-18.571c0.451-0.821 0.931-1.393 1.44-1.716 0.54-0.352 1.245-0.528 2.116-0.528 1.020 0 1.8 0.28 2.34 0.836 0.569 0.557 0.853 1.335 0.853 2.333v25.475c0 0.997-0.269 1.773-0.809 2.332-0.54 0.557-1.32 0.836-2.34 0.836s-1.815-0.279-2.385-0.836c-0.54-0.557-0.809-1.335-0.809-2.333v-17.817h0.989l-8.369 14.653c-0.36 0.557-0.751 0.983-1.171 1.276-0.391 0.264-0.915 0.396-1.575 0.396s-1.2-0.147-1.62-0.44c-0.42-0.293-0.796-0.704-1.125-1.232l-8.461-14.699h1.080v17.865c0 0.997-0.269 1.773-0.809 2.332-0.511 0.557-1.291 0.836-2.34 0.836zM148.687 31.951c-2.611 0-4.861-0.455-6.751-1.364-1.86-0.939-3.3-2.244-4.32-3.916-0.991-1.701-1.485-3.696-1.485-5.984 0-2.229 0.48-4.181 1.44-5.853 0.948-1.681 2.311-3.030 3.953-3.934l0.052-0.026c1.74-0.968 3.705-1.452 5.895-1.452 1.591 0 3.031 0.264 4.32 0.792 1.306 0.504 2.418 1.252 3.328 2.197l0.003 0.003c0.931 0.939 1.635 2.097 2.115 3.476 0.48 1.351 0.721 2.861 0.721 4.533 0 0.557-0.181 0.983-0.541 1.276-0.36 0.264-0.884 0.396-1.575 0.396h-14.131v-3.432h11.341l-0.72 0.616c0-1.203-0.18-2.2-0.541-2.993-0.36-0.821-0.884-1.437-1.575-1.848-0.66-0.409-1.485-0.616-2.475-0.616-1.111 0-2.056 0.251-2.836 0.749-0.78 0.497-1.38 1.216-1.8 2.155-0.42 0.94-0.629 2.069-0.629 3.389v0.352c0 2.229 0.525 3.872 1.575 4.928 1.080 1.056 2.671 1.584 4.771 1.584 0.72 0 1.545-0.088 2.475-0.264 0.983-0.185 1.858-0.475 2.676-0.864l-0.066 0.028c0.689-0.323 1.305-0.427 1.845-0.308 0.54 0.088 0.96 0.323 1.26 0.704s0.464 0.821 0.495 1.32c0.060 0.499-0.045 0.997-0.315 1.496-0.271 0.469-0.72 0.865-1.351 1.187-1.020 0.559-2.175 0.969-3.465 1.233-1.26 0.293-2.489 0.44-3.689 0.44zM169.38 31.951c-1.62 0-3.076-0.308-4.365-0.924-1.291-0.616-2.296-1.453-3.016-2.508-0.676-0.977-1.080-2.187-1.080-3.491 0-0.026 0-0.051 0-0.076l-0 0.004c0-1.584 0.42-2.831 1.26-3.74 0.84-0.939 2.205-1.6 4.096-1.98 1.889-0.411 4.395-0.616 7.515-0.616h2.385v3.432h-2.34c-1.529 0-2.775 0.088-3.735 0.264-0.931 0.147-1.605 0.411-2.025 0.792-0.391 0.381-0.585 0.909-0.585 1.584 0 0.821 0.285 1.496 0.855 2.024 0.6 0.528 1.456 0.792 2.565 0.792 0.871 0 1.636-0.191 2.296-0.573 0.675-0.4 1.223-0.949 1.609-1.606l0.011-0.021c0.368-0.665 0.585-1.459 0.585-2.302 0-0.026-0-0.052-0.001-0.077l0 0.004v-5.060c0-1.292-0.3-2.2-0.9-2.728-0.6-0.557-1.62-0.836-3.060-0.836-0.809 0-1.695 0.101-2.655 0.307-0.931 0.176-1.965 0.484-3.105 0.924-0.66 0.293-1.245 0.367-1.755 0.22-0.489-0.159-0.892-0.468-1.166-0.872l-0.005-0.008c-0.254-0.399-0.405-0.886-0.405-1.408v-0c0-0.528 0.151-1.027 0.451-1.496 0.3-0.499 0.795-0.865 1.485-1.1 1.409-0.557 2.729-0.939 3.96-1.144 1.036-0.185 2.234-0.297 3.456-0.307l0.009-0c2.309 0 4.2 0.336 5.671 1.011 1.5 0.645 2.624 1.657 3.375 3.036 0.749 1.349 1.125 3.096 1.125 5.237v9.768c0 1.085-0.271 1.92-0.811 2.507-0.54 0.588-1.32 0.881-2.34 0.881s-1.815-0.293-2.385-0.88c-0.54-0.587-0.809-1.423-0.809-2.508v-1.628l0.315 0.264c-0.171 0.998-0.585 1.878-1.179 2.606l0.008-0.010c-0.588 0.712-1.325 1.279-2.166 1.657l-0.038 0.015c-0.9 0.381-1.936 0.572-3.105 0.572zM194.925 31.951c-2.671 0-4.665-0.719-5.985-2.156-1.32-1.467-1.98-3.637-1.98-6.512v-19.845c0-1.115 0.284-1.951 0.855-2.507 0.6-0.587 1.455-0.881 2.565-0.881 1.080 0 1.905 0.293 2.475 0.88 0.6 0.557 0.9 1.393 0.9 2.508v19.581c0 1.203 0.255 2.097 0.765 2.684 0.54 0.557 1.245 0.836 2.115 0.836 0.24 0 0.465-0.015 0.676-0.044 0.209-0.029 0.435-0.044 0.675-0.044 0.48-0.059 0.809 0.088 0.989 0.44 0.211 0.323 0.316 0.983 0.316 1.98 0 0.88-0.18 1.555-0.54 2.024-0.36 0.44-0.916 0.733-1.665 0.88-0.162 0.020-0.52 0.051-0.878 0.078l-0.158 0.010c-0.337 0.055-0.726 0.087-1.123 0.088h-0.001z"></path>
</symbol>

<symbol id="icon-logo-footer" viewBox="0 0 32 32">
<path fill="#fff" style="fill: var(--color1, #fff)" d="M25.123 7.102l2.649-0.084v9.402h-3.196l0.547-9.318z"></path>
<path fill="#fff" style="fill: var(--color1, #fff)" d="M20.119 23.303c0 2.225-1.412 4.029-3.154 4.029s-3.154-1.804-3.154-4.029c0-2.225 1.412-4.029 3.154-4.029s3.154 1.804 3.154 4.029z"></path>
<path fill="#fff" style="fill: var(--color1, #fff)" d="M11.179 10.166c0 2.225-1.538 1.847-3.28 1.847s-2.902-0.588-2.902-1.385c0-2.225 1.286-2.518 3.028-2.518s3.154-0.169 3.154 2.057z"></path>
<path fill="#ff7020" style="fill: var(--color2, #ff7020)" d="M3.43 2.936c-0.155 0.087-0.36 0.273-0.466 0.415l-0.186 0.267v6.65l0.161 0.415c0.584 1.494 1.838 2.485 3.347 2.64l0.404 0.043 0.031 7.499 0.031 7.499 0.137 0.223c0.081 0.124 0.261 0.304 0.404 0.403 0.23 0.161 0.31 0.18 0.733 0.18 0.416 0 0.503-0.019 0.72-0.167 0.13-0.093 0.31-0.273 0.397-0.403l0.155-0.229 0.031-7.499 0.031-7.505 0.404-0.043c1.546-0.155 2.9-1.264 3.372-2.745 0.137-0.428 0.137-0.496 0.137-3.694v-3.26l-0.168-0.242c-0.273-0.384-0.559-0.545-1.037-0.57-0.509-0.025-0.876 0.143-1.155 0.539l-0.186 0.267-0.031 1.556-0.031 1.562h-1.304l-0.031-1.556c-0.031-1.531-0.031-1.556-0.186-1.779-0.261-0.39-0.577-0.564-1.049-0.589-0.509-0.025-0.875 0.143-1.155 0.539l-0.186 0.267-0.031 1.556-0.031 1.562h-1.304l-0.031-1.556-0.031-1.556-0.168-0.242c-0.273-0.384-0.559-0.545-1.037-0.57-0.341-0.019-0.459 0.006-0.689 0.124zM10.633 9.555c0 0.378-0.304 0.793-0.745 1.029-0.199 0.105-0.373 0.118-1.863 0.118-1.565 0-1.658-0.006-1.894-0.136-0.422-0.223-0.714-0.638-0.714-1.010v-0.186h5.216v0.186z"></path>
<path fill="#ff7020" style="fill: var(--color2, #ff7020)" d="M16.301 2.936c-0.155 0.087-0.36 0.273-0.466 0.415l-0.186 0.267-0.062 13.82-0.522 0.155c-1.304 0.372-2.279 1.153-2.825 2.25-0.478 0.973-0.559 1.376-0.559 2.789 0 1.035 0.019 1.283 0.13 1.735 0.608 2.398 1.956 4.035 3.837 4.66 0.366 0.118 0.565 0.143 1.273 0.143s0.907-0.025 1.273-0.143c1.881-0.626 3.229-2.262 3.837-4.66 0.112-0.452 0.13-0.7 0.13-1.735 0-1.041-0.019-1.277-0.137-1.704-0.466-1.717-1.577-2.857-3.247-3.334l-0.522-0.155-0.031-6.904-0.031-6.91-0.168-0.242c-0.273-0.384-0.559-0.545-1.037-0.57-0.342-0.019-0.459 0.006-0.689 0.124zM18.146 20.152c0.695 0.235 1.149 0.775 1.323 1.556 0.118 0.539 0.050 1.89-0.124 2.442-0.323 1.016-0.938 1.872-1.602 2.206-0.416 0.211-1.217 0.217-1.627 0.006-0.708-0.366-1.279-1.159-1.627-2.243-0.124-0.409-0.143-0.589-0.143-1.487 0-0.998 0.006-1.029 0.18-1.413 0.31-0.669 0.944-1.103 1.776-1.215 0 0 1.459 0.025 1.844 0.149z"></path>
<path fill="#ff7020" style="fill: var(--color2, #ff7020)" d="M28.274 2.911c-0.795 0.415-2.024 1.543-2.782 2.541-1.888 2.51-2.987 6.055-3.241 10.486-0.093 1.624-0.050 1.865 0.379 2.293 0.416 0.415 0.528 0.434 2.887 0.434h2.024v9.587l0.143 0.26c0.074 0.149 0.261 0.353 0.41 0.465 0.242 0.174 0.304 0.192 0.745 0.192 0.422 0 0.509-0.019 0.726-0.167 0.13-0.093 0.31-0.273 0.397-0.403l0.155-0.229v-24.746l-0.168-0.242c-0.273-0.39-0.559-0.545-1.037-0.57-0.31-0.012-0.466 0.006-0.64 0.099zM27.541 11.6v4.4h-2.626l0.044-0.638c0.112-1.704 0.528-3.762 1.068-5.28 0.36-1.004 1.329-2.882 1.484-2.882 0.019 0 0.031 1.977 0.031 4.4z"></path>
</symbol>

<symbol id="icon-call" viewBox="0 0 32 32">
<path d="M26.68 20.507c-1.64 0-3.227-0.267-4.707-0.747-0.125-0.044-0.268-0.069-0.418-0.069-0.363 0-0.692 0.149-0.928 0.389l-0 0-2.093 2.627c-3.773-1.8-7.307-5.2-9.187-9.107l2.6-2.213c0.36-0.373 0.467-0.893 0.32-1.36-0.493-1.48-0.747-3.067-0.747-4.707 0-0.72-0.6-1.32-1.32-1.32h-4.613c-0.72 0-1.587 0.32-1.587 1.32 0 12.387 10.307 22.68 22.68 22.68 0.947 0 1.32-0.84 1.32-1.573v-4.6c0-0.72-0.6-1.32-1.32-1.32z"></path>
</symbol>

<symbol id="icon-instagram" viewBox="0 0 32 32">
<path d="M16 2.881c4.275 0 4.781 0.019 6.462 0.094 1.563 0.069 2.406 0.331 2.969 0.55 0.744 0.288 1.281 0.638 1.837 1.194 0.563 0.563 0.906 1.094 1.2 1.838 0.219 0.563 0.481 1.412 0.55 2.969 0.075 1.688 0.094 2.194 0.094 6.463s-0.019 4.781-0.094 6.463c-0.069 1.563-0.331 2.406-0.55 2.969-0.288 0.744-0.637 1.281-1.194 1.837-0.563 0.563-1.094 0.906-1.837 1.2-0.563 0.219-1.413 0.481-2.969 0.55-1.688 0.075-2.194 0.094-6.463 0.094s-4.781-0.019-6.463-0.094c-1.563-0.069-2.406-0.331-2.969-0.55-0.744-0.288-1.281-0.637-1.838-1.194-0.563-0.563-0.906-1.094-1.2-1.837-0.219-0.563-0.481-1.413-0.55-2.969-0.075-1.688-0.094-2.194-0.094-6.463s0.019-4.781 0.094-6.463c0.069-1.563 0.331-2.406 0.55-2.969 0.288-0.744 0.638-1.281 1.194-1.838 0.563-0.563 1.094-0.906 1.838-1.2 0.563-0.219 1.412-0.481 2.969-0.55 1.681-0.075 2.188-0.094 6.463-0.094zM16 0c-4.344 0-4.887 0.019-6.594 0.094-1.7 0.075-2.869 0.35-3.881 0.744-1.056 0.412-1.95 0.956-2.837 1.85-0.894 0.888-1.438 1.781-1.85 2.831-0.394 1.019-0.669 2.181-0.744 3.881-0.075 1.713-0.094 2.256-0.094 6.6s0.019 4.887 0.094 6.594c0.075 1.7 0.35 2.869 0.744 3.881 0.413 1.056 0.956 1.95 1.85 2.837 0.887 0.887 1.781 1.438 2.831 1.844 1.019 0.394 2.181 0.669 3.881 0.744 1.706 0.075 2.25 0.094 6.594 0.094s4.888-0.019 6.594-0.094c1.7-0.075 2.869-0.35 3.881-0.744 1.050-0.406 1.944-0.956 2.831-1.844s1.438-1.781 1.844-2.831c0.394-1.019 0.669-2.181 0.744-3.881 0.075-1.706 0.094-2.25 0.094-6.594s-0.019-4.887-0.094-6.594c-0.075-1.7-0.35-2.869-0.744-3.881-0.394-1.063-0.938-1.956-1.831-2.844-0.887-0.887-1.781-1.438-2.831-1.844-1.019-0.394-2.181-0.669-3.881-0.744-1.712-0.081-2.256-0.1-6.6-0.1v0z"></path>
<path d="M16 7.781c-4.537 0-8.219 3.681-8.219 8.219s3.681 8.219 8.219 8.219 8.219-3.681 8.219-8.219c0-4.537-3.681-8.219-8.219-8.219zM16 21.331c-2.944 0-5.331-2.387-5.331-5.331s2.387-5.331 5.331-5.331c2.944 0 5.331 2.387 5.331 5.331s-2.387 5.331-5.331 5.331z"></path>
<path d="M26.462 7.456c0 1.060-0.859 1.919-1.919 1.919s-1.919-0.859-1.919-1.919c0-1.060 0.859-1.919 1.919-1.919s1.919 0.859 1.919 1.919z"></path>
</symbol>

<symbol id="icon-telegram" viewBox="0 0 32 32">
<path d="M16 0c-8.838 0-16 7.162-16 16s7.162 16 16 16 16-7.163 16-16-7.163-16-16-16zM23.863 10.969l-2.625 12.369c-0.181 0.881-0.712 1.087-1.45 0.681l-4-2.956-1.919 1.869c-0.225 0.219-0.4 0.4-0.8 0.4-0.519 0-0.431-0.194-0.606-0.688l-1.363-4.475-3.956-1.231c-0.856-0.262-0.862-0.85 0.194-1.269l15.412-5.95c0.7-0.319 1.381 0.169 1.113 1.25z"></path>
</symbol>

<symbol id="icon-linkedin" viewBox="0 0 32 32">
<path d="M29 0h-26c-1.65 0-3 1.35-3 3v26c0 1.65 1.35 3 3 3h26c1.65 0 3-1.35 3-3v-26c0-1.65-1.35-3-3-3zM12 26h-4v-14h4v14zM10 10c-1.106 0-2-0.894-2-2s0.894-2 2-2c1.106 0 2 0.894 2 2s-0.894 2-2 2zM26 26h-4v-8c0-1.106-0.894-2-2-2s-2 0.894-2 2v8h-4v-14h4v2.481c0.825-1.131 2.087-2.481 3.5-2.481 2.488 0 4.5 2.238 4.5 5v9z"></path>
</symbol>

<symbol id="icon-close" viewBox="0 0 32 32">
<path d="M6.765 7.043l0.943-0.943 18.856 18.856-0.943 0.943z"></path>
<path d="M7.709 25.899l-0.943-0.943 18.856-18.856 0.943 0.943z"></path>
</symbol>


</defs>
</svg>